<svg width="25" height="27" viewBox="0 0 25 27" fill="none" xmlns="http://www.w3.org/2000/svg">
<path d="M25 12C25 18.6274 19.6274 24 13 24C6.37258 24 1 18.6274 1 12C1 5.37258 6.37258 0 13 0C19.6274 0 25 5.37258 25 12Z" fill="white"/>
<g filter="url(#filter0_d_144_364)">
<path d="M5.92419 13.8051C5.79591 13.8245 5.67833 13.7577 5.64287 13.6434C5.30937 12.6285 5.12538 12.5079 3.96441 12.5666C3.83045 12.5725 3.71432 12.4911 3.69738 12.3788C3.68021 12.265 3.76587 12.1564 3.89512 12.1194C5.01086 11.8091 5.13326 11.6663 5.18304 10.5951C5.1888 10.4762 5.27788 10.3782 5.40438 10.3592C5.53444 10.3395 5.65024 10.4066 5.68925 10.5203C6.01896 11.5343 6.20295 11.6548 7.36214 11.5964C7.49989 11.5916 7.61378 11.6701 7.63118 11.7855C7.64812 11.8977 7.56602 12.0058 7.43321 12.0434C6.31616 12.357 6.19531 12.498 6.14908 13.5687C6.14 13.6897 6.0489 13.7863 5.92419 13.8051Z" fill="url(#paint0_radial_144_364)"/>
</g>
<g filter="url(#filter1_d_144_364)">
<circle cx="9.90625" cy="17.9687" r="0.71875" transform="rotate(180 9.90625 17.9687)" fill="url(#paint1_radial_144_364)"/>
</g>
<g filter="url(#filter2_d_144_364)">
<path d="M15.9867 15.6069C15.8585 15.6263 15.7409 15.5595 15.7054 15.4452C15.3719 14.4303 15.1879 14.3097 14.027 14.3684C13.893 14.3743 13.7769 14.2929 13.7599 14.1806C13.7428 14.0668 13.8284 13.9582 13.9577 13.9212C15.0734 13.6109 15.1958 13.4681 15.2456 12.3969C15.2514 12.278 15.3404 12.18 15.4669 12.161C15.597 12.1413 15.7128 12.2084 15.7518 12.3221C16.0815 13.3361 16.2655 13.4566 17.4247 13.3982C17.5625 13.3934 17.6763 13.4719 17.6937 13.5872C17.7107 13.6995 17.6286 13.8076 17.4958 13.8452C16.3787 14.1588 16.2579 14.2998 16.2116 15.3705C16.2026 15.4914 16.1115 15.5881 15.9867 15.6069Z" fill="url(#paint2_radial_144_364)"/>
</g>
<path d="M9.85085 12.1265H17.149V10.689H9.85085V12.1265ZM9.85085 14.891H17.149V13.4535H9.85085V14.891ZM9.85085 17.6554H14.274V16.2179H9.85085V17.6554ZM8.04487 20.6041C7.56075 20.6041 7.15098 20.4364 6.81556 20.101C6.48015 19.7656 6.31244 19.3558 6.31244 18.8717V4.12824C6.31244 3.64412 6.48015 3.23435 6.81556 2.89894C7.15098 2.56352 7.56075 2.39581 8.04487 2.39581H15.6562L20.6874 7.42706V18.8717C20.6874 19.3558 20.5197 19.7656 20.1843 20.101C19.8489 20.4364 19.4391 20.6041 18.955 20.6041H8.04487ZM14.9374 8.14581V3.83331H8.04487C7.97107 3.83331 7.90351 3.86406 7.84218 3.92555C7.78069 3.98689 7.74994 4.05445 7.74994 4.12824V18.8717C7.74994 18.9455 7.78069 19.0131 7.84218 19.0744C7.90351 19.1359 7.97107 19.1666 8.04487 19.1666H18.955C19.0288 19.1666 19.0964 19.1359 19.1577 19.0744C19.2192 19.0131 19.2499 18.9455 19.2499 18.8717V8.14581H14.9374Z" fill="#2869DA"/>
<g filter="url(#filter3_d_144_364)">
<path d="M18.3534 21.9127C18.1724 21.94 18.0087 21.8606 17.9618 21.7204C17.5194 20.4751 17.2637 20.331 15.6284 20.4343C15.4398 20.4451 15.2785 20.3477 15.2577 20.2094C15.2365 20.0692 15.3599 19.9327 15.5428 19.8836C17.1211 19.4707 17.2971 19.2909 17.3955 17.966C17.4068 17.819 17.5347 17.6956 17.7132 17.6687C17.8968 17.641 18.0579 17.7208 18.1098 17.8602C18.5469 19.1044 18.8027 19.2484 20.4354 19.1455C20.6294 19.1359 20.7876 19.2299 20.809 19.372C20.8298 19.5103 20.7115 19.646 20.5236 19.6959C18.9434 20.113 18.7696 20.2905 18.6762 21.6146C18.6602 21.7643 18.5294 21.8862 18.3534 21.9127Z" fill="url(#paint3_radial_144_364)"/>
</g>
<g filter="url(#filter4_d_144_364)">
<circle cx="9.90625" cy="7.90625" r="0.71875" transform="rotate(180 9.90625 7.90625)" fill="url(#paint4_radial_144_364)"/>
</g>
<g filter="url(#filter5_d_144_364)">
<circle cx="15.656" cy="9.34372" r="0.71875" transform="rotate(180 15.656 9.34372)" fill="url(#paint5_radial_144_364)"/>
</g>
<defs>
<filter id="filter0_d_144_364" x="0.375876" y="7.90066" width="10.5768" height="10.0913" filterUnits="userSpaceOnUse" color-interpolation-filters="sRGB">
<feFlood flood-opacity="0" result="BackgroundImageFix"/>
<feColorMatrix in="SourceAlpha" type="matrix" values="0 0 0 0 0 0 0 0 0 0 0 0 0 0 0 0 0 0 127 0" result="hardAlpha"/>
<feOffset dy="0.8642"/>
<feGaussianBlur stdDeviation="1.65966"/>
<feComposite in2="hardAlpha" operator="out"/>
<feColorMatrix type="matrix" values="0 0 0 0 0.220722 0 0 0 0 0.210451 0 0 0 0 0.241667 0 0 0 0.6 0"/>
<feBlend mode="normal" in2="BackgroundImageFix" result="effect1_dropShadow_144_364"/>
<feBlend mode="normal" in="SourceGraphic" in2="effect1_dropShadow_144_364" result="shape"/>
</filter>
<filter id="filter1_d_144_364" x="7.75" y="15.8125" width="4.3125" height="4.3125" filterUnits="userSpaceOnUse" color-interpolation-filters="sRGB">
<feFlood flood-opacity="0" result="BackgroundImageFix"/>
<feColorMatrix in="SourceAlpha" type="matrix" values="0 0 0 0 0 0 0 0 0 0 0 0 0 0 0 0 0 0 127 0" result="hardAlpha"/>
<feOffset/>
<feGaussianBlur stdDeviation="0.71875"/>
<feComposite in2="hardAlpha" operator="out"/>
<feColorMatrix type="matrix" values="0 0 0 0 0.831373 0 0 0 0 0.545098 0 0 0 0 1 0 0 0 0.8 0"/>
<feBlend mode="normal" in2="BackgroundImageFix" result="effect1_dropShadow_144_364"/>
<feBlend mode="normal" in="SourceGraphic" in2="effect1_dropShadow_144_364" result="shape"/>
</filter>
<filter id="filter2_d_144_364" x="10.4385" y="9.70245" width="10.5767" height="10.0913" filterUnits="userSpaceOnUse" color-interpolation-filters="sRGB">
<feFlood flood-opacity="0" result="BackgroundImageFix"/>
<feColorMatrix in="SourceAlpha" type="matrix" values="0 0 0 0 0 0 0 0 0 0 0 0 0 0 0 0 0 0 127 0" result="hardAlpha"/>
<feOffset dy="0.8642"/>
<feGaussianBlur stdDeviation="1.65966"/>
<feComposite in2="hardAlpha" operator="out"/>
<feColorMatrix type="matrix" values="0 0 0 0 0.220722 0 0 0 0 0.210451 0 0 0 0 0.241667 0 0 0 0.6 0"/>
<feBlend mode="normal" in2="BackgroundImageFix" result="effect1_dropShadow_144_364"/>
<feBlend mode="normal" in="SourceGraphic" in2="effect1_dropShadow_144_364" result="shape"/>
</filter>
<filter id="filter3_d_144_364" x="11.9359" y="15.2081" width="12.1948" height="10.8935" filterUnits="userSpaceOnUse" color-interpolation-filters="sRGB">
<feFlood flood-opacity="0" result="BackgroundImageFix"/>
<feColorMatrix in="SourceAlpha" type="matrix" values="0 0 0 0 0 0 0 0 0 0 0 0 0 0 0 0 0 0 127 0" result="hardAlpha"/>
<feOffset dy="0.8642"/>
<feGaussianBlur stdDeviation="1.65966"/>
<feComposite in2="hardAlpha" operator="out"/>
<feColorMatrix type="matrix" values="0 0 0 0 0.220722 0 0 0 0 0.210451 0 0 0 0 0.241667 0 0 0 0.6 0"/>
<feBlend mode="normal" in2="BackgroundImageFix" result="effect1_dropShadow_144_364"/>
<feBlend mode="normal" in="SourceGraphic" in2="effect1_dropShadow_144_364" result="shape"/>
</filter>
<filter id="filter4_d_144_364" x="7.75" y="5.75" width="4.3125" height="4.3125" filterUnits="userSpaceOnUse" color-interpolation-filters="sRGB">
<feFlood flood-opacity="0" result="BackgroundImageFix"/>
<feColorMatrix in="SourceAlpha" type="matrix" values="0 0 0 0 0 0 0 0 0 0 0 0 0 0 0 0 0 0 127 0" result="hardAlpha"/>
<feOffset/>
<feGaussianBlur stdDeviation="0.71875"/>
<feComposite in2="hardAlpha" operator="out"/>
<feColorMatrix type="matrix" values="0 0 0 0 0.831373 0 0 0 0 0.545098 0 0 0 0 1 0 0 0 0.8 0"/>
<feBlend mode="normal" in2="BackgroundImageFix" result="effect1_dropShadow_144_364"/>
<feBlend mode="normal" in="SourceGraphic" in2="effect1_dropShadow_144_364" result="shape"/>
</filter>
<filter id="filter5_d_144_364" x="13.4998" y="7.18747" width="4.3125" height="4.3125" filterUnits="userSpaceOnUse" color-interpolation-filters="sRGB">
<feFlood flood-opacity="0" result="BackgroundImageFix"/>
<feColorMatrix in="SourceAlpha" type="matrix" values="0 0 0 0 0 0 0 0 0 0 0 0 0 0 0 0 0 0 127 0" result="hardAlpha"/>
<feOffset/>
<feGaussianBlur stdDeviation="0.71875"/>
<feComposite in2="hardAlpha" operator="out"/>
<feColorMatrix type="matrix" values="0 0 0 0 0.831373 0 0 0 0 0.545098 0 0 0 0 1 0 0 0 0.8 0"/>
<feBlend mode="normal" in2="BackgroundImageFix" result="effect1_dropShadow_144_364"/>
<feBlend mode="normal" in="SourceGraphic" in2="effect1_dropShadow_144_364" result="shape"/>
</filter>
<radialGradient id="paint0_radial_144_364" cx="0" cy="0" r="1" gradientUnits="userSpaceOnUse" gradientTransform="translate(7.16307 13.0309) rotate(-164.279) scale(2.82301 2.66516)">
<stop stop-color="#F0D9FF"/>
<stop offset="0.4" stop-color="#C084FC"/>
<stop offset="1" stop-color="#9333EA"/>
</radialGradient>
<radialGradient id="paint1_radial_144_364" cx="0" cy="0" r="1" gradientUnits="userSpaceOnUse" gradientTransform="translate(9.42188 18.4479) rotate(-27.2669) scale(1.04591 1.07217)">
<stop stop-color="#F0D9FF"/>
<stop offset="0.4" stop-color="#C084FC"/>
<stop offset="1" stop-color="#9333EA"/>
</radialGradient>
<radialGradient id="paint2_radial_144_364" cx="0" cy="0" r="1" gradientUnits="userSpaceOnUse" gradientTransform="translate(17.2256 14.8326) rotate(-164.279) scale(2.82301 2.66516)">
<stop stop-color="#F0D9FF"/>
<stop offset="0.4" stop-color="#C084FC"/>
<stop offset="1" stop-color="#9333EA"/>
</radialGradient>
<radialGradient id="paint3_radial_144_364" cx="0" cy="0" r="1" gradientUnits="userSpaceOnUse" gradientTransform="translate(20.1173 20.9232) rotate(-167.072) scale(3.90259 3.35072)">
<stop stop-color="#F0D9FF"/>
<stop offset="0.4" stop-color="#C084FC"/>
<stop offset="1" stop-color="#9333EA"/>
</radialGradient>
<radialGradient id="paint4_radial_144_364" cx="0" cy="0" r="1" gradientUnits="userSpaceOnUse" gradientTransform="translate(9.42188 8.38542) rotate(-27.2669) scale(1.04591 1.07217)">
<stop stop-color="#F0D9FF"/>
<stop offset="0.4" stop-color="#C084FC"/>
<stop offset="1" stop-color="#9333EA"/>
</radialGradient>
<radialGradient id="paint5_radial_144_364" cx="0" cy="0" r="1" gradientUnits="userSpaceOnUse" gradientTransform="translate(15.1716 9.82289) rotate(-27.2669) scale(1.04591 1.07217)">
<stop stop-color="#F0D9FF"/>
<stop offset="0.4" stop-color="#C084FC"/>
<stop offset="1" stop-color="#9333EA"/>
</radialGradient>
</defs>
</svg>
