<svg width="32" height="32" viewBox="0 0 32 32" fill="none" xmlns="http://www.w3.org/2000/svg">
<g clip-path="url(#clip0_153_242)">
<path fill-rule="evenodd" clip-rule="evenodd" d="M29.3333 7.51513C29.3333 9.3406 26.5591 10.9305 22.46 11.7576C26.5591 12.5847 29.3333 14.1745 29.3333 16C29.3333 17.8255 26.5591 19.4153 22.46 20.2424C26.5591 21.0695 29.3333 22.6594 29.3333 24.4849C29.3333 27.1626 23.3638 29.3333 16 29.3333C8.6362 29.3333 2.66667 27.1626 2.66667 24.4849C2.66667 22.6594 5.44096 21.0695 9.54 20.2424C5.44096 19.4153 2.66667 17.8255 2.66667 16C2.66667 14.1745 5.44096 12.5847 9.54 11.7576C5.44096 10.9305 2.66667 9.3406 2.66667 7.51513C2.66667 4.83741 8.6362 2.66667 16 2.66667C23.3638 2.66667 29.3333 4.83741 29.3333 7.51513V7.51513Z" fill="#2869DA"/>
</g>
<defs>
<clipPath id="clip0_153_242">
<rect width="32" height="32" fill="white"/>
</clipPath>
</defs>
</svg>
