<svg width="64" height="64" viewBox="0 0 64 64" fill="none" xmlns="http://www.w3.org/2000/svg">
<path d="M20.4518 12.3926H13.9212C13.3801 12.3926 12.9278 12.7554 12.8293 13.2555L4.01673 60.7746C3.89871 61.4118 4.41999 62.0001 5.10847 62.0001H11.6393C12.1802 62.0001 12.6326 61.6375 12.7311 61.1374L21.5437 13.6181C21.6618 12.9809 21.1403 12.3926 20.4518 12.3926Z" fill="#0A0F25"/>
<path d="M59.527 12.3926H27.2666C26.5879 12.3926 26.0075 12.8828 25.8895 13.5495L24.8469 19.5102C24.6995 20.3633 25.3585 21.1475 26.2239 21.1475H58.4943C59.173 21.1475 59.7532 20.6573 59.8713 19.9906L60.9138 14.0299C61.0614 13.177 60.4024 12.3926 59.527 12.3926Z" fill="#2869D9"/>
<path d="M48.5167 29.4131H23.4656C22.787 29.4131 22.2067 29.9033 22.0886 30.57L21.0461 36.5307C20.8985 37.3836 21.5576 38.1679 22.4229 38.1679H47.4742C48.1527 38.1679 48.7331 37.6778 48.851 37.0111L49.8937 31.0504C50.0512 30.1875 49.3921 29.4131 48.5167 29.4131Z" fill="#2869D9"/>
<path d="M36.4743 46.4209H19.6652C18.9865 46.4209 18.4063 46.9109 18.2884 47.5777L17.1868 53.8913C17.0392 54.7442 17.6982 55.5287 18.5638 55.5287H35.3727C36.0513 55.5287 36.6315 55.0385 36.7497 54.3717L37.8511 48.058C38.0085 47.2052 37.3495 46.4209 36.4743 46.4209Z" fill="#2869D9"/>
<path d="M21.2082 2.76468C20.3524 2.91174 19.6837 3.58821 19.5263 4.44114C19.5165 4.48035 19.4673 4.48035 19.4673 4.44114C19.3197 3.58821 18.6411 2.92155 17.7855 2.76468C17.746 2.75489 17.746 2.70587 17.7855 2.70587C18.6411 2.5588 19.3099 1.88234 19.4673 1.02941C19.4772 0.990197 19.5263 0.990197 19.5263 1.02941C19.6739 1.88234 20.3524 2.54899 21.2082 2.70587C21.2475 2.70587 21.2475 2.75489 21.2082 2.76468Z" fill="#6C2EF2"/>
<path d="M17.7144 6.70793C16.2686 6.96282 15.1178 8.10008 14.8621 9.54124C14.8523 9.60007 14.7638 9.60007 14.754 9.54124C14.4981 8.10008 13.3574 6.95302 11.9116 6.70793C11.8524 6.69812 11.8524 6.60988 11.9116 6.60007C13.3574 6.34518 14.5081 5.20794 14.754 3.76676C14.7638 3.70795 14.8523 3.70795 14.8621 3.76676C15.1178 5.20794 16.2588 6.35498 17.7144 6.60007C17.7832 6.60988 17.7832 6.69812 17.7144 6.70793Z" fill="#6C2EF2"/>
<path d="M22.7928 8.60823C21.8388 8.77489 21.0913 9.51999 20.9241 10.471C20.9142 10.5102 20.8651 10.5102 20.8553 10.471C20.688 9.51999 19.9406 8.77489 18.9865 8.60823C18.9472 8.59842 18.9472 8.5494 18.9865 8.53961C19.9406 8.37294 20.688 7.62785 20.8553 6.67687C20.8651 6.63766 20.9142 6.63766 20.9241 6.67687C21.0913 7.62785 21.8388 8.37294 22.7928 8.53961C22.8323 8.5494 22.8323 8.60823 22.7928 8.60823Z" fill="#6C2EF2"/>
</svg>
