<svg width="542" height="115" viewBox="0 0 542 115" fill="none" xmlns="http://www.w3.org/2000/svg">
<path d="M287.128 56.192C288.995 55.693 290.914 56.8022 291.413 58.6696C291.912 60.5368 290.803 62.4555 288.935 62.9547C189.994 89.3992 79.9197 130.649 19.1503 163.256C17.4471 164.17 15.325 163.53 14.4111 161.827C13.4974 160.124 14.1369 158.003 15.8398 157.089C77.2374 124.144 187.863 82.7231 287.128 56.192ZM231.546 47.6911C233.346 47.2577 235.189 48.3084 235.719 50.1041C236.266 51.958 235.206 53.9047 233.352 54.4518L226.222 56.57C152.408 78.6496 74.8897 106.409 5.03999 136.192C3.26193 136.95 1.20535 136.123 0.447215 134.345C-0.31065 132.567 0.516084 130.511 2.29389 129.753C74.6601 98.8965 155.192 70.22 231.372 47.7379L231.546 47.6911ZM424.061 4.11683C450.897 0.667749 474.336 -0.601479 493.006 0.792614C511.479 2.17211 526.061 6.20522 534.364 14.0993C538.633 18.1574 541.193 23.1944 541.728 29.151C542.256 35.0183 540.798 41.5203 537.541 48.6051C531.055 62.713 517.023 80.0048 494.585 100.863C493.169 102.179 490.955 102.098 489.639 100.682C488.991 99.9856 488.682 99.0956 488.704 98.2145C488.549 98.3716 488.395 98.5306 488.239 98.6881L488.108 98.8131C486.74 100.061 484.619 100.029 483.289 98.7116C481.916 97.3513 481.906 95.1356 483.266 93.7623L484.553 92.4538C497.69 79.0044 505.803 67.7316 509.685 58.5299C513.659 49.1121 513.03 42.3754 509.541 37.4596C505.874 32.2941 498.43 28.202 486.696 25.7018C475.068 23.2239 459.821 22.438 441.391 23.3424L441.21 23.3463C439.358 23.3431 437.815 21.8874 437.724 20.0172C437.629 18.0869 439.117 16.445 441.048 16.3502L442.796 16.2692C460.776 15.481 476.09 16.2852 488.155 18.8561C500.504 21.4875 510.064 26.102 515.25 33.4088C520.613 40.9656 520.684 50.4696 516.135 61.2506C513.003 68.6717 507.602 76.9353 499.867 86.068C516.132 69.8245 526.23 56.4512 531.182 45.6813C534.118 39.2944 535.139 34.045 534.756 29.778C534.38 25.6004 532.64 22.119 529.541 19.1725C523.109 13.0573 510.688 9.13239 492.484 7.77308C474.477 6.42845 451.559 7.6397 424.954 11.0592C388.827 15.7026 346.118 24.3874 300.058 36.0914L299.882 36.1315C298.066 36.4959 296.265 35.376 295.804 33.5612C295.328 31.6879 296.461 29.7834 298.334 29.3073L302.658 28.2145C347.249 17.0158 388.708 8.66077 424.061 4.11683ZM479.297 96.5036C478.11 98.0293 475.912 98.3049 474.386 97.1188C472.86 95.9324 472.584 93.7327 473.77 92.2067L479.297 96.5036ZM414.657 30.9186C435.079 28.9699 452.79 28.9129 466.448 31.3385C480.355 33.8084 491.161 39.0645 495.379 48.7516C497.973 54.71 497.774 61.7219 495.089 69.5807C492.412 77.4163 487.183 86.3598 479.297 96.5036L476.534 94.3551L473.77 92.2067C481.406 82.3855 486.135 74.1374 488.465 67.317C490.787 60.5201 490.644 55.411 488.961 51.5465C486.218 45.2481 478.584 40.6029 465.225 38.2301C452.056 35.8914 434.38 35.9663 413.373 38.0778L413.193 38.0914C411.344 38.1832 409.727 36.8082 409.54 34.945C409.347 33.0218 410.75 31.3062 412.673 31.1129L414.657 30.9186ZM290.205 43.2311C292.075 42.7416 293.988 43.8604 294.477 45.7301C294.967 47.6 293.848 49.5129 291.978 50.0026C271.962 55.243 251.023 61.2089 229.344 67.8678C227.496 68.4351 225.538 67.3971 224.971 65.5495C224.403 63.7018 225.441 61.7439 227.289 61.1764C249.055 54.4909 270.088 48.498 290.205 43.2311ZM389.531 34.0387C391.443 33.7529 393.225 35.0714 393.511 36.983C393.796 38.8946 392.478 40.6756 390.566 40.9616C366.902 44.5017 340.423 49.9887 312.568 56.8717C310.692 57.3354 308.795 56.1897 308.331 54.3131C307.867 52.4367 309.012 50.5396 310.889 50.0758C338.892 43.1562 365.593 37.6198 389.531 34.0387ZM405.262 19.6813C407.178 19.4317 408.935 20.7833 409.185 22.6998C409.434 24.6165 408.083 26.3729 406.166 26.6227C385.578 29.3038 362.566 33.4419 337.579 38.9616C335.692 39.3783 333.824 38.1858 333.407 36.2985C332.99 34.4111 334.182 32.5426 336.069 32.1256C361.213 26.5713 384.43 22.3941 405.262 19.6813Z" fill="#494949"/>
</svg>
