<svg width="1498" height="848" viewBox="0 0 1498 848" fill="none" xmlns="http://www.w3.org/2000/svg">
<g opacity="0.2" clip-path="url(#clip0_166_438)">
<path d="M660.5 658C780.07 658 877 754.93 877 874.5C877 994.07 780.07 1091 660.5 1091C540.93 1091 444 994.07 444 874.5C444 754.93 540.93 658 660.5 658ZM660.5 727.078C590.247 727.078 533.296 793.081 533.296 874.5C533.296 955.919 590.247 1021.92 660.5 1021.92C730.753 1021.92 787.704 955.919 787.704 874.5C787.704 793.081 730.753 727.078 660.5 727.078Z" fill="#2869DA"/>
<path d="M1488.5 130C1559.47 130 1617 187.531 1617 258.5C1617 329.469 1559.47 387 1488.5 387C1417.53 387 1360 329.469 1360 258.5C1360 187.531 1417.53 130 1488.5 130ZM1488.5 171C1446.8 171 1413 210.175 1413 258.5C1413 306.825 1446.8 346 1488.5 346C1530.2 346 1564 306.825 1564 258.5C1564 210.175 1530.2 171 1488.5 171Z" fill="#2869DA"/>
<path d="M254 580.037C254 565.718 256.819 551.54 262.299 538.31C267.779 525.081 275.809 513.061 285.933 502.936C296.058 492.811 308.076 484.78 321.303 479.3C334.53 473.82 348.708 471 363.025 471V580.037H254Z" fill="#2869DA"/>
<path d="M0 743.485C14.3172 743.485 28.4948 740.673 41.7218 735.208C54.9487 729.743 66.9676 721.733 77.0917 711.635C87.2158 701.538 95.2466 689.55 100.726 676.357C106.206 663.163 109.025 649.023 109.025 634.743C109.025 620.462 106.206 606.322 100.726 593.129C95.2466 579.935 87.2158 567.948 77.0917 557.85C66.9676 547.752 54.9487 539.742 41.7218 534.278C28.4948 528.813 14.3172 526 0 526V634.743V743.485Z" fill="#6B91D4"/>
<path d="M276.461 852.037C276.461 837.719 273.649 823.539 268.185 810.311C262.72 797.083 254.711 785.062 244.614 774.937C234.517 764.812 222.531 756.78 209.34 751.3C196.148 745.82 182.009 743 167.731 743C153.452 743 139.313 745.82 126.122 751.3C112.93 756.78 100.944 764.812 90.8472 774.937C80.7505 785.062 72.7414 797.083 67.2766 810.311C61.8118 823.539 59 837.719 59 852.037H167.731H276.461Z" fill="#4380E9"/>
<path d="M1169 0C1169 14.3188 1171.81 28.498 1177.28 41.7264C1182.74 54.9548 1190.75 66.9751 1200.85 77.1003C1210.94 87.2255 1222.93 95.2572 1236.12 100.737C1249.31 106.218 1263.45 109.037 1277.73 109.037C1292.01 109.037 1306.15 106.218 1319.34 100.737C1332.53 95.2572 1344.52 87.2255 1354.61 77.1003C1364.71 66.9751 1372.72 54.9548 1378.18 41.7264C1383.65 28.498 1386.46 14.3188 1386.46 0H1277.73H1169Z" fill="#2869DA"/>
<path d="M1016 0C1030.32 0 1044.49 2.81209 1057.72 8.27749C1070.95 13.7429 1082.97 21.7529 1093.09 31.8507C1103.22 41.9486 1111.25 53.9363 1116.73 67.129C1122.21 80.3217 1125.03 94.4625 1125.03 108.743C1125.03 123.023 1122.21 137.164 1116.73 150.356C1111.25 163.549 1103.22 175.537 1093.09 185.635C1082.97 195.732 1070.95 203.742 1057.72 209.208C1044.49 214.673 1030.32 217.485 1016 217.485L1016 108.743L1016 0Z" fill="#538AE9"/>
<path d="M1169 346.037C1169 331.719 1171.82 317.539 1177.3 304.311C1182.78 291.083 1190.81 279.062 1200.93 268.937C1211.06 258.812 1223.08 250.78 1236.3 245.3C1249.53 239.82 1263.71 237 1278.03 237V346.037H1169Z" fill="#2869DA"/>
<path d="M-6.68458 0C17.2379 0 36.6308 19.3951 36.6308 43.3202C36.6308 67.2453 17.2379 86.6405 -6.68458 86.6405C-30.607 86.6405 -50 67.2453 -50 43.3202C-50 19.3951 -30.607 0 -6.68458 0Z" fill="#2869DA"/>
<path d="M1360 722C1378.78 722 1394 735.655 1394 752.5C1394 769.345 1378.78 783 1360 783C1341.22 783 1326 769.345 1326 752.5C1326 735.655 1341.22 722 1360 722Z" fill="#4B81E0"/>
<path d="M69.2402 0C83.5574 0 97.7351 2.81209 110.962 8.27749C124.189 13.7429 136.208 21.7529 146.332 31.8507C156.456 41.9486 164.487 53.9363 169.966 67.129C175.446 80.3217 178.265 94.4625 178.265 108.743C178.265 123.023 175.446 137.164 169.966 150.356C164.487 163.549 156.456 175.537 146.332 185.635C136.208 195.732 124.189 203.742 110.962 209.208C97.7351 214.673 83.5574 217.485 69.2402 217.485V0Z" fill="#4C81DC"/>
<path d="M1420 722C1431.29 722 1442.48 723.965 1452.91 727.785C1463.34 731.605 1472.82 737.203 1480.81 744.26C1488.8 751.318 1495.13 759.696 1499.45 768.916C1503.78 778.137 1506 788.02 1506 798C1506 807.98 1503.78 817.863 1499.45 827.084C1495.13 836.304 1488.8 844.682 1480.81 851.74C1472.82 858.797 1463.34 864.395 1452.91 868.215C1442.48 872.035 1431.29 874 1420 874V722Z" fill="#5B8BDE"/>
<path d="M-61 108H48.0252V217.037C33.7078 217.037 19.5306 214.218 6.303 208.737C-6.92437 203.257 -18.9433 195.226 -29.0672 185.1C-39.1913 174.975 -47.2218 162.955 -52.701 149.726C-58.18 136.498 -61 122.319 -61 108Z" fill="#2869DA"/>
<path d="M1317 798H1403V874C1391.71 874 1380.52 872.035 1370.09 868.215C1359.66 864.395 1350.17 858.797 1342.19 851.74C1334.2 844.682 1327.87 836.304 1323.55 827.084C1319.22 817.863 1317 807.98 1317 798Z" fill="#2869DA"/>
</g>
<defs>
<clipPath id="clip0_166_438">
<rect width="1498" height="848" fill="white"/>
</clipPath>
</defs>
</svg>
