<svg width="33" height="32" viewBox="0 0 33 32" fill="none" xmlns="http://www.w3.org/2000/svg">
<path fill-rule="evenodd" clip-rule="evenodd" d="M7.2 28.6333C7.66667 29.1 8.23678 29.3333 8.91033 29.3333H24.0897C24.7632 29.3333 25.3333 29.1 25.8 28.6333C26.2667 28.1667 26.5 27.5966 26.5 26.923V11L19.5 4H8.91033C8.23678 4 7.66667 4.23333 7.2 4.7C6.73333 5.16667 6.5 5.73678 6.5 6.41033V26.923C6.5 27.5966 6.73333 28.1667 7.2 28.6333ZM24.5 12H18.5V6L24.5 12ZM8.91033 26.5127H10.0897V23.846H11.577C11.9119 23.846 12.1922 23.7332 12.418 23.5077C12.6436 23.2819 12.7563 23.0016 12.7563 22.6667V21.1793C12.7563 20.8444 12.6436 20.5641 12.418 20.3383C12.1922 20.1128 11.9119 20 11.577 20H8.91033V26.5127ZM10.0897 21.1793V22.6667H11.577V21.1793H10.8333H10.0897ZM16.7307 26.5127H14.1153V20H16.7307C17.0658 20 17.3461 20.1128 17.5717 20.3383C17.7974 20.5641 17.9103 20.8444 17.9103 21.1793V25.3333C17.9103 25.6682 17.7974 25.9486 17.5717 26.1743C17.3461 26.3999 17.0658 26.5127 16.7307 26.5127ZM15.2947 25.3333V21.1793H16.7307V25.3333H15.2947ZM20.577 26.5127H19.3973V20H22.1667V21.1793H20.577V22.6667H22.1667V23.846H20.577V26.5127Z" fill="#6B7582"/>
<path fill-rule="evenodd" clip-rule="evenodd" d="M10.0897 26.5127H8.91033V20H11.577C11.9119 20 12.1922 20.1128 12.418 20.3383C12.6436 20.5641 12.7563 20.8444 12.7563 21.1793V22.6667C12.7563 23.0016 12.6436 23.2819 12.418 23.5077C12.1922 23.7332 11.9119 23.846 11.577 23.846H10.0897V26.5127ZM10.0897 21.1793V22.6667H11.577V21.1793H10.8333H10.0897Z" fill="#6B7582"/>
<path fill-rule="evenodd" clip-rule="evenodd" d="M14.1153 26.5127H16.7307C17.0658 26.5127 17.3461 26.3999 17.5717 26.1743C17.7974 25.9486 17.9103 25.6682 17.9103 25.3333V21.1793C17.9103 20.8444 17.7974 20.5641 17.5717 20.3383C17.3461 20.1128 17.0658 20 16.7307 20H14.1153V26.5127ZM15.2947 25.3333V21.1793H16.7307V25.3333H15.2947Z" fill="#6B7582"/>
<path fill-rule="evenodd" clip-rule="evenodd" d="M19.3973 26.5127H20.577V23.846H22.1667V22.6667H20.577V21.1793H22.1667V20H19.3973V26.5127Z" fill="#6B7582"/>
</svg>
