<svg width="500" height="500" viewBox="0 0 500 500" fill="none" xmlns="http://www.w3.org/2000/svg">
<path d="M67.857 393.434C33.336 370.711 16.17 324.774 20.914 282.33C23.001 263.657 28.817 245.367 28.385 226.572C28.116 214.884 25.426 203.394 24.717 191.726C21.991 146.902 50.498 103.677 89.075 84.1422C127.652 64.6072 174.029 66.6182 214.055 82.6322C229.885 88.9652 245.26 97.4502 262.086 99.5412C290.331 103.051 317.592 88.1132 345.907 85.2902C399.235 79.9742 450.479 121.068 469.531 173.557C488.583 226.046 479.629 286.271 456.216 336.784C443.39 364.456 424.084 391.792 395.801 399.995C385.774 402.903 375.241 403.191 364.837 403.179C310.995 403.114 256.421 395.384 203.377 408.262C161.649 418.392 105.261 418.055 67.857 393.434Z" fill="#F3F3FF"/>
<path d="M248.34 154.7L242.341 135.96L233.536 137.267C232.368 135.667 231.08 134.177 229.689 132.805L232.45 124.277L214.957 115.267L209.515 122.605C207.659 122.311 205.772 122.159 203.867 122.155L199.701 114L180.961 119.999L182.305 129.058C180.757 130.167 179.309 131.387 177.969 132.704L169.278 129.89L160.268 147.383L167.468 152.722C167.133 154.647 166.949 156.608 166.927 158.589L159 162.639L164.999 181.379L173.563 180.108C174.759 181.823 176.092 183.417 177.539 184.882L174.891 193.062L192.384 202.072L197.405 195.302C199.507 195.673 201.652 195.863 203.819 195.86L207.64 203.34L226.38 197.341L225.147 189.033C226.913 187.777 228.549 186.376 230.045 184.854L238.064 187.45L247.074 169.957L240.168 164.835C240.495 162.802 240.654 160.73 240.632 158.639L248.34 154.7ZM210.312 179.42C199.039 183.029 186.972 176.814 183.364 165.541C179.755 154.268 185.97 142.201 197.243 138.593C208.516 134.984 220.582 141.199 224.191 152.472C227.8 163.745 221.585 175.811 210.312 179.42Z" fill="#D7D2FF"/>
<path d="M232.395 156.116L228.537 144.065L222.875 144.905C222.124 143.876 221.295 142.918 220.401 142.035L222.177 136.551L210.928 130.757L207.429 135.476C206.236 135.287 205.022 135.189 203.797 135.186L201.118 129.942L189.067 133.8L189.931 139.625C188.935 140.338 188.004 141.123 187.142 141.97L181.553 140.16L175.759 151.409L180.389 154.842C180.174 156.08 180.056 157.341 180.041 158.615L174.943 161.219L178.801 173.27L184.308 172.453C185.077 173.556 185.934 174.581 186.865 175.523L185.162 180.783L196.411 186.577L199.64 182.223C200.992 182.461 202.371 182.584 203.765 182.582L206.222 187.392L218.273 183.535L217.48 178.192C218.616 177.384 219.668 176.484 220.629 175.505L225.786 177.175L231.58 165.926L227.139 162.632C227.349 161.325 227.451 159.992 227.438 158.648L232.395 156.116ZM207.941 172.013C200.692 174.334 192.932 170.337 190.612 163.088C188.291 155.839 192.288 148.079 199.537 145.759C206.786 143.439 214.546 147.435 216.866 154.684C219.187 161.933 215.19 169.692 207.941 172.013Z" fill="#E8E6FC"/>
<path d="M161.289 167.978V135.308L146.704 132.917C145.666 129.796 144.384 126.788 142.88 123.914L151.563 111.827L128.462 88.726L116.143 97.575C113.357 96.171 110.45 94.975 107.44 94.004L104.98 79H72.31L69.85 94.004C66.841 94.975 63.933 96.171 61.147 97.575L48.828 88.726L25.727 111.826L34.409 123.913C32.905 126.788 31.622 129.796 30.585 132.916L16 135.307V167.977L30.185 170.302C31.209 173.619 32.509 176.815 34.055 179.864L25.727 191.459L48.828 214.56L60.194 206.396C63.33 208.046 66.626 209.433 70.054 210.525L72.31 224.287H104.98L107.236 210.525C110.664 209.433 113.96 208.046 117.095 206.396L128.461 214.56L151.562 191.459L143.234 179.864C144.78 176.815 146.08 173.619 147.104 170.302L161.289 167.978ZM88.645 187.818C68.992 187.818 53.058 171.884 53.058 152.231C53.058 132.578 68.992 116.644 88.645 116.644C108.298 116.644 124.232 132.578 124.232 152.231C124.232 171.883 108.298 187.818 88.645 187.818Z" fill="#C3B7FC"/>
<path d="M88.6448 197.653C63.2748 197.653 42.6348 177.013 42.6348 151.643C42.6348 126.273 63.2748 105.633 88.6448 105.633C114.015 105.633 134.655 126.273 134.655 151.643C134.656 177.013 114.016 197.653 88.6448 197.653ZM88.6448 120.649C71.5548 120.649 57.6518 134.553 57.6518 151.642C57.6518 168.732 71.5548 182.635 88.6448 182.635C105.735 182.635 119.638 168.731 119.638 151.642C119.638 134.553 105.735 120.649 88.6448 120.649Z" fill="#D7D2FF"/>
<path d="M451.578 207.109V182.469L440.578 180.666C439.795 178.312 438.828 176.044 437.694 173.875L444.242 164.758L426.819 147.335L417.528 154.009C415.427 152.95 413.234 152.048 410.964 151.316L409.109 140H384.469L382.614 151.316C380.344 152.048 378.151 152.95 376.05 154.009L366.759 147.335L349.336 164.758L355.884 173.875C354.75 176.043 353.782 178.312 353 180.666L342 182.469V207.109L352.698 208.863C353.47 211.365 354.45 213.775 355.617 216.075L349.336 224.82L366.759 242.243L375.331 236.085C377.696 237.33 380.182 238.376 382.767 239.199L384.469 249.578H409.109L410.81 239.199C413.396 238.375 415.881 237.33 418.246 236.085L426.818 242.243L444.241 224.82L437.96 216.075C439.126 213.775 440.106 211.365 440.879 208.863L451.578 207.109ZM396.789 222.073C381.967 222.073 369.949 210.055 369.949 195.233C369.949 180.411 381.967 168.393 396.789 168.393C411.611 168.393 423.629 180.411 423.629 195.233C423.629 210.055 411.611 222.073 396.789 222.073Z" fill="#D7D2FF"/>
<path d="M396.789 229.491C377.654 229.491 362.087 213.924 362.087 194.789C362.087 175.654 377.654 160.087 396.789 160.087C415.924 160.087 431.491 175.654 431.491 194.789C431.491 213.924 415.924 229.491 396.789 229.491ZM396.789 171.413C383.9 171.413 373.413 181.899 373.413 194.789C373.413 207.679 383.899 218.165 396.789 218.165C409.678 218.165 420.164 207.679 420.164 194.789C420.164 181.899 409.679 171.413 396.789 171.413Z" fill="#C3B7FC"/>
<path d="M93.2394 383.866C94.0274 385.32 94.9334 386.72 95.9634 388.063C103.868 398.334 119.093 402.183 130.896 397.024C131.662 396.693 132.411 396.325 133.145 395.912C134.33 395.247 135.433 394.516 136.458 393.715C146.322 386.087 149.021 372.741 147.463 359.726L147.461 359.721C147.237 357.879 146.933 356.048 146.549 354.24C144.87 346.282 141.7 338.789 137.749 333.202C137.323 332.597 136.883 332.004 136.427 331.419C135.506 330.228 134.527 329.068 133.532 327.93C130.351 324.312 126.893 320.885 123.859 317.219C123.051 316.248 122.274 315.258 121.542 314.24C119.765 311.788 118.237 309.183 117.149 306.319C115.332 301.544 114.894 296.445 114.481 291.328C114.32 289.353 114.161 287.384 113.934 285.42C113.689 283.334 113.359 281.274 112.854 279.243C111.738 274.766 109.781 270.569 107.342 266.638C106.566 265.38 105.736 264.147 104.862 262.947C103.903 261.616 102.893 260.316 101.855 259.054C96.8984 253.029 91.1754 247.646 84.8714 243.043C84.8684 243.038 84.8684 243.038 84.8684 243.038C83.8264 242.279 82.7664 241.54 81.6914 240.822L81.6884 240.817C78.4194 238.63 75.0094 236.645 71.4934 234.884C70.2504 234.255 68.9904 233.661 67.7214 233.09C63.1724 231.059 58.4674 229.386 53.6454 228.11C52.0434 227.691 50.2494 227.366 48.5654 227.408C48.4814 227.408 48.3964 227.408 48.3134 227.413C46.8474 227.478 45.8024 228.521 45.5244 229.747C45.3074 230.666 45.5154 231.676 46.2764 232.459C49.7884 236.076 52.6974 240.279 54.8664 244.828C55.4804 246.101 56.0364 247.402 56.5244 248.726C57.7094 251.904 58.5494 255.207 59.0034 258.563C59.1894 259.895 59.3124 261.231 59.3734 262.575C59.3744 262.633 59.3804 262.689 59.3804 262.747C59.6594 269.434 58.5334 276.32 57.9134 283.073C57.7674 284.603 57.6524 286.131 57.5894 287.643C57.3204 293.644 57.8124 299.472 60.4384 304.879C61.3274 306.71 62.4244 308.4 63.6544 309.996C64.8744 311.584 66.2294 313.085 67.6364 314.555C71.5064 318.599 75.7854 322.386 78.8774 327.033C81.1904 330.515 82.7564 334.312 83.8734 338.307C84.2844 339.777 84.6394 341.28 84.9434 342.799C85.8984 347.551 86.4054 352.489 86.9264 357.414C87.0754 358.835 87.2294 360.253 87.3944 361.667C88.1264 367.951 89.1014 374.112 91.3124 379.721C91.8634 381.139 92.5024 382.525 93.2394 383.866Z" fill="#E08675"/>
<path d="M93.2394 383.866C97.4714 383.993 101.71 384.105 105.937 384.221L119.368 384.6C122.187 384.678 125.333 385.132 128.278 385.003C129.602 388.911 130.52 392.912 130.897 397.025C131.663 396.694 132.412 396.326 133.146 395.913C134.331 395.248 135.434 394.517 136.459 393.716C135.878 390.139 134.949 386.61 133.754 383.157C135.438 381.549 136.443 379.08 137.584 377.096C139.74 373.334 141.894 369.567 144.025 365.791C145.168 363.767 146.319 361.746 147.464 359.727L147.462 359.722C147.238 357.88 146.934 356.049 146.55 354.241C144.883 357.038 143.254 359.85 141.608 362.65C139.519 366.218 137.441 369.795 135.372 373.379C134.383 375.086 133.41 376.798 132.419 378.499C132.326 378.652 132.239 378.789 132.153 378.926C130.307 374.445 128.066 370.111 125.633 365.995C124.714 364.438 123.754 362.907 122.778 361.383C124.029 359.667 124.722 357.185 125.476 355.547C127.156 351.88 128.854 348.211 130.525 344.54C132.277 340.69 133.995 336.823 135.732 332.967C135.964 332.451 136.197 331.935 136.429 331.419C135.508 330.228 134.529 329.068 133.534 327.93C131.318 332.187 129.6 336.854 127.658 341.012C126.113 344.319 124.604 347.648 123.08 350.972C122.28 352.722 121.486 354.47 120.684 356.215C120.48 356.666 120.318 357.065 120.155 357.419C116.95 352.681 113.577 348.045 110.32 343.336C111.65 341.707 112.524 339.494 113.437 337.835C115.238 334.548 117.016 331.252 118.697 327.902C120.467 324.362 122.198 320.808 123.862 317.22C123.054 316.249 122.277 315.259 121.545 314.241C121.494 314.342 121.448 314.442 121.394 314.537C119.55 318.071 117.719 321.606 115.807 325.107C114.006 328.407 112.212 331.711 110.374 334.989C109.561 336.44 108.806 338.261 107.79 339.622C104.406 334.549 101.238 329.352 98.6494 323.799C97.4504 321.232 96.4544 318.638 95.6304 316.01C97.5024 314.101 99.0934 311.45 100.587 309.584C103.056 306.492 105.499 303.386 107.896 300.236C110.121 297.308 112.371 294.362 114.483 291.329C114.322 289.354 114.163 287.385 113.936 285.421C110.912 289.176 108.072 293.094 105.136 296.913C102.954 299.75 100.771 302.587 98.5484 305.391C97.3744 306.864 96.1984 308.331 95.0144 309.795C94.7734 310.093 94.5084 310.481 94.2294 310.895C93.4194 307.429 92.8614 303.887 92.4754 300.253C92.2864 298.487 92.1154 296.718 91.9334 294.954C92.8794 294.093 93.4924 292.844 94.1324 291.784C95.2444 289.949 96.3314 288.101 97.3964 286.235C99.2624 282.976 101.072 279.679 102.751 276.324C104.35 273.136 105.908 269.914 107.344 266.638C106.568 265.38 105.738 264.147 104.864 262.947C104.798 263.087 104.73 263.223 104.662 263.358C102.982 266.726 101.368 270.123 99.6004 273.454C97.9304 276.616 96.2434 279.767 94.4794 282.881C93.6024 284.433 92.7034 285.981 91.7864 287.518C91.6034 287.829 91.4124 288.209 91.2104 288.607C90.7194 284.872 90.0734 281.168 89.0454 277.509C87.3114 271.338 84.8384 265.399 81.7214 259.815C81.8434 259.428 81.9454 259.024 82.0314 258.601C82.6614 255.582 83.1344 252.518 83.6294 249.476C83.9664 247.424 84.4424 245.249 84.8714 243.044C84.8684 243.039 84.8684 243.039 84.8684 243.039C83.8264 242.28 82.7664 241.541 81.6914 240.823C81.3654 242.487 81.0804 244.139 80.7474 245.702C80.1834 248.352 79.6064 251.003 79.0714 253.659C79.0154 253.964 78.9624 254.502 78.8904 255.113C76.4254 251.311 73.6404 247.72 70.5814 244.371C71.2944 242.003 71.1964 238.914 71.3404 237.067C71.3944 236.36 71.4434 235.628 71.4934 234.884C70.2504 234.255 68.9904 233.661 67.7214 233.09C67.7064 233.955 67.6824 234.811 67.6204 235.659C67.4864 237.372 67.3174 239.081 67.0994 240.78C63.1634 236.961 58.8684 233.552 54.1794 230.675C52.4094 229.591 50.5254 228.456 48.5644 227.408C48.4804 227.408 48.3954 227.408 48.3124 227.413C46.8464 227.478 45.8014 228.521 45.5234 229.747C45.6844 229.829 45.8374 229.909 45.9884 229.996C49.0874 231.74 52.0584 233.705 54.8834 235.86C58.2134 238.409 61.3664 241.168 64.3054 244.143C61.1634 244.454 58.0154 244.65 54.8654 244.828C55.4794 246.101 56.0354 247.402 56.5234 248.726C58.6754 248.555 60.8234 248.361 62.9724 248.153C64.3794 248.017 66.1264 248.097 67.5844 247.658C68.5434 248.748 69.4784 249.855 70.3754 251.006C72.2704 253.417 74.0184 255.948 75.6144 258.573C75.5354 258.557 75.4534 258.549 75.3934 258.544C69.9954 258.156 64.4734 258.124 59.0034 258.562C59.1894 259.894 59.3124 261.23 59.3734 262.574C59.3744 262.632 59.3804 262.688 59.3804 262.746C60.8434 262.604 62.3164 262.497 63.7954 262.433C66.8144 262.295 69.8454 262.283 72.8614 262.394C74.3834 262.453 76.2984 262.872 77.9754 262.73C81.9194 270.194 84.6364 278.289 85.8454 286.67C86.0664 288.208 86.2374 289.748 86.3894 291.291C85.2994 290.983 84.1824 290.518 83.3994 290.297C81.5364 289.777 79.6724 289.256 77.8044 288.738C74.2584 287.751 70.7094 286.759 67.1634 285.772C64.0994 284.915 61.0154 283.971 57.9134 283.074C57.7674 284.604 57.6524 286.132 57.5894 287.644C61.6144 288.724 65.6654 289.708 69.6154 290.81C73.7224 291.957 77.8294 293.104 81.9334 294.246C83.2984 294.63 85.0514 295.364 86.7874 295.76C87.1654 300.386 87.4944 305.021 88.3234 309.597C88.5834 311.019 88.8934 312.425 89.2474 313.824C88.1354 313.61 86.9894 313.237 86.2564 313.097C84.4734 312.767 82.6854 312.453 80.8954 312.165C77.4934 311.606 74.0774 311.132 70.6564 310.731C68.3394 310.457 66.0064 310.203 63.6554 309.996C64.8754 311.584 66.2304 313.085 67.6374 314.555C69.5804 314.753 71.5284 314.975 73.4774 315.242C77.2574 315.758 81.0144 316.369 84.7614 317.069C86.4604 317.385 88.5794 318.14 90.5394 318.259C92.1154 323.046 94.2004 327.666 96.6204 332.094C98.1594 334.921 99.8864 337.747 101.726 340.58C95.8564 339.303 89.8694 338.566 83.8744 338.308C84.2854 339.778 84.6404 341.281 84.9444 342.8C85.6024 342.831 86.2624 342.868 86.9224 342.917C90.7054 343.198 94.4644 343.671 98.2024 344.323C100.304 344.683 102.776 345.523 105.083 345.607C108.144 350.086 111.37 354.6 114.47 359.192C111.614 359.06 108.722 358.723 105.907 358.566C102.215 358.355 98.5174 358.145 94.8254 357.934C92.2004 357.781 89.5654 357.593 86.9284 357.414C87.0774 358.835 87.2314 360.253 87.3964 361.667C90.7174 361.821 94.0374 361.943 97.3354 362.132C101.611 362.383 105.892 362.631 110.165 362.876C112.109 362.989 114.058 363.1 116.002 363.213C116.39 363.237 116.791 363.275 117.197 363.31C120.905 369.048 124.282 374.917 126.781 380.999C126.775 381.002 126.768 380.999 126.762 381.001C118.778 380.761 110.8 380.518 102.821 380.275C99.0304 380.161 95.1734 379.888 91.3134 379.721C91.8634 381.139 92.5024 382.525 93.2394 383.866Z" fill="#DD6E5C"/>
<path d="M125.431 374.58C125.041 381.254 122.846 388.584 119.091 394.81C118.534 395.734 117.945 396.632 117.319 397.5C113.965 402.169 109.64 405.968 104.465 408.01C90.2735 413.606 74.2015 413.804 60.4305 406.853C57.2805 405.261 54.0465 402.617 52.6485 399.567C52.1275 398.434 51.8615 397.245 51.9455 396.035C51.9905 395.424 52.1255 394.808 52.3605 394.189C52.9235 392.711 54.0245 391.494 55.2395 390.479C57.9355 388.228 61.3215 386.814 64.8175 386.484C52.9525 385.206 40.3645 381.914 32.7575 372.718C31.5285 371.233 30.4325 369.471 30.0055 367.628C29.7725 366.638 29.7365 365.623 29.9765 364.614C30.0145 364.456 30.0595 364.298 30.1115 364.149C30.9305 361.656 33.3905 359.904 35.9635 359.256C38.6955 358.567 41.5655 358.889 44.3635 359.216C32.6715 354.119 23.7705 343.055 21.2935 330.541C20.6135 327.109 20.6415 323.117 22.1415 320.114C22.6285 319.132 23.2745 318.253 24.1015 317.538C24.4585 317.232 24.8455 316.952 25.2695 316.709C28.6215 314.775 32.8565 315.755 36.4855 317.098C45.4725 320.425 53.7325 325.699 60.5355 332.448C59.3895 329.166 59.0735 325.49 60.2705 322.227C61.4665 318.961 64.3435 316.214 67.7905 315.749C67.8705 315.74 67.9515 315.73 68.0325 315.723C69.4045 315.574 70.7335 315.773 72.0095 316.213C75.0295 317.26 77.7445 319.672 80.0115 322.067C87.1235 329.588 93.1355 338.148 97.7935 347.389C98.6645 345.013 99.5685 342.581 101.242 340.682C102.11 339.696 103.244 338.882 104.473 338.418C105.547 338.016 106.694 337.881 107.804 338.139C107.868 338.155 107.932 338.17 107.993 338.187C109.389 338.57 110.551 339.516 111.618 340.494C120.957 349.056 126.174 361.931 125.431 374.58Z" fill="#EFC45E"/>
<path d="M105.566 387.897C109.975 390.391 114.485 392.707 119.092 394.811C122.616 396.422 126.196 397.909 129.838 399.258C131.762 399.97 130.849 403.031 128.919 402.315C124.991 400.858 121.124 399.25 117.32 397.5C112.19 395.147 107.179 392.537 102.291 389.709C98.9426 392.298 95.3396 394.521 91.4856 396.281C79.4096 401.793 65.4496 403.047 52.6486 399.569C52.1276 398.436 51.8616 397.247 51.9456 396.037C67.8806 400.853 85.9166 397.913 99.3346 387.962C90.1776 382.444 81.4846 376.2 73.1706 369.48C59.2176 374.482 43.4676 373.696 30.0046 367.63C29.7716 366.64 29.7356 365.625 29.9756 364.616C30.0136 364.458 30.0586 364.3 30.1106 364.151C42.5346 370.132 57.0676 371.198 70.2666 367.102C66.1746 363.703 62.1707 360.198 58.2547 356.611C45.6237 345.045 33.8216 332.628 22.1396 320.116C22.6266 319.134 23.2726 318.255 24.0996 317.54C30.0066 323.865 35.9386 330.163 41.9916 336.349C53.1526 347.748 64.7526 358.778 77.2666 368.686C79.3016 359.379 77.7127 349.564 76.3697 340.262C75.1097 331.521 72.4666 323.219 68.0306 315.725C69.4026 315.576 70.7317 315.775 72.0077 316.215C72.8417 317.728 73.6146 319.277 74.3186 320.861C78.0316 329.219 79.3646 338.023 80.4776 347.026C81.4556 354.951 82.0296 363.027 80.0276 370.84C81.3146 371.832 82.6086 372.817 83.9176 373.781C89.9916 378.269 96.2897 382.478 102.803 386.304C104.633 382.573 106.043 378.653 107.023 374.611C109.931 362.632 108.999 349.832 104.47 338.419C105.544 338.017 106.691 337.882 107.801 338.14C108.083 338.881 108.35 339.63 108.605 340.381C113.83 355.846 112.757 373.248 105.566 387.897Z" fill="#F7E5BD"/>
<path d="M406.649 387.508C405.777 388.977 404.784 390.386 403.667 391.731C395.091 402.015 379.217 405.375 367.239 399.571C366.461 399.199 365.703 398.789 364.962 398.332C363.765 397.598 362.656 396.798 361.63 395.93C351.755 387.656 349.507 373.768 351.641 360.395L351.644 360.39C351.95 358.498 352.337 356.619 352.806 354.768C354.861 346.619 358.436 339.012 362.741 333.403C363.205 332.796 363.683 332.201 364.177 331.616C365.177 330.423 366.233 329.266 367.306 328.131C370.737 324.524 374.445 321.126 377.725 317.464C378.598 316.495 379.441 315.503 380.238 314.482C382.172 312.022 383.855 309.395 385.093 306.481C387.162 301.625 387.82 296.378 388.453 291.112C388.699 289.08 388.942 287.053 389.256 285.035C389.593 282.891 390.017 280.778 390.621 278.701C391.954 274.124 394.144 269.87 396.821 265.91C397.673 264.643 398.58 263.403 399.531 262.199C400.575 260.864 401.67 259.563 402.793 258.302C408.154 252.282 414.281 246.956 420.975 242.458C420.978 242.453 420.978 242.453 420.978 242.453C422.085 241.711 423.208 240.992 424.348 240.294L424.351 240.289C427.814 238.163 431.415 236.251 435.117 234.575C436.426 233.976 437.75 233.413 439.084 232.875C443.863 230.962 448.788 229.424 453.818 228.303C455.489 227.935 457.354 227.672 459.091 227.783C459.178 227.786 459.266 227.789 459.35 227.798C460.861 227.924 461.897 229.043 462.135 230.321C462.323 231.278 462.067 232.313 461.249 233.091C457.477 236.683 454.304 240.906 451.88 245.514C451.194 246.804 450.569 248.124 450.011 249.472C448.659 252.705 447.659 256.081 447.055 259.527C446.809 260.895 446.629 262.269 446.511 263.654C446.508 263.714 446.499 263.771 446.496 263.831C445.938 270.723 446.822 277.878 447.19 284.875C447.279 286.46 447.335 288.043 447.34 289.606C447.375 295.812 446.632 301.81 443.702 307.286C442.711 309.14 441.51 310.841 440.175 312.439C438.852 314.03 437.392 315.524 435.88 316.985C431.721 321.004 427.15 324.74 423.77 329.413C421.242 332.914 419.472 336.771 418.157 340.851C417.673 342.352 417.246 343.889 416.871 345.445C415.693 350.313 414.97 355.39 414.233 360.453C414.022 361.914 413.806 363.372 413.578 364.825C412.568 371.284 411.313 377.605 408.803 383.306C408.18 384.749 407.464 386.153 406.649 387.508Z" fill="#5F5EA5"/>
<path d="M406.65 387.508C402.275 387.468 397.895 387.412 393.525 387.362L379.644 387.21C376.731 387.176 373.464 387.518 370.429 387.266C368.904 391.247 367.795 395.342 367.24 399.572C366.462 399.2 365.704 398.79 364.963 398.333C363.766 397.599 362.657 396.799 361.631 395.931C362.375 392.261 363.477 388.656 364.85 385.139C363.176 383.411 362.239 380.822 361.14 378.727C359.066 374.756 356.994 370.78 354.947 366.795C353.849 364.659 352.742 362.526 351.641 360.395L351.644 360.39C351.95 358.498 352.337 356.619 352.806 354.768C354.414 357.723 355.982 360.692 357.569 363.65C359.581 367.418 361.583 371.195 363.573 374.979C364.525 376.781 365.46 378.588 366.415 380.385C366.505 380.546 366.589 380.692 366.673 380.837C368.76 376.285 371.248 371.901 373.927 367.75C374.939 366.18 375.992 364.638 377.061 363.103C375.838 361.281 375.223 358.69 374.512 356.969C372.926 353.115 371.321 349.258 369.744 345.401C368.091 341.355 366.473 337.294 364.836 333.243C364.617 332.701 364.398 332.159 364.178 331.617C365.178 330.424 366.234 329.267 367.307 328.132C369.423 332.617 371.007 337.504 372.845 341.875C374.306 345.351 375.73 348.849 377.169 352.342C377.924 354.182 378.674 356.018 379.431 357.852C379.623 358.326 379.775 358.744 379.929 359.117C383.43 354.354 387.099 349.705 390.652 344.975C389.345 343.24 388.531 340.92 387.656 339.17C385.929 335.704 384.227 332.229 382.627 328.703C380.942 324.977 379.299 321.237 377.726 317.465C378.599 316.496 379.442 315.504 380.239 314.483C380.288 314.59 380.331 314.694 380.383 314.795C382.144 318.518 383.892 322.242 385.724 325.933C387.451 329.413 389.169 332.896 390.934 336.355C391.715 337.886 392.42 339.796 393.415 341.243C397.114 336.143 400.595 330.904 403.492 325.276C404.833 322.675 405.967 320.036 406.923 317.357C405.068 315.311 403.532 312.509 402.065 310.522C399.641 307.23 397.244 303.925 394.896 300.576C392.717 297.463 390.513 294.331 388.455 291.114C388.701 289.082 388.944 287.055 389.258 285.037C392.229 289.036 395.002 293.196 397.88 297.257C400.018 300.274 402.157 303.292 404.339 306.276C405.491 307.844 406.646 309.406 407.81 310.966C408.046 311.284 408.304 311.695 408.576 312.133C409.552 308.587 410.272 304.953 410.817 301.217C411.084 299.401 411.332 297.582 411.59 295.769C410.648 294.841 410.066 293.527 409.448 292.407C408.374 290.468 407.327 288.515 406.302 286.546C404.507 283.107 402.772 279.629 401.174 276.097C399.652 272.741 398.174 269.352 396.824 265.911C397.676 264.644 398.583 263.404 399.534 262.2C399.596 262.348 399.661 262.49 399.726 262.633C401.324 266.178 402.853 269.751 404.545 273.261C406.141 276.593 407.756 279.914 409.451 283.2C410.294 284.838 411.159 286.473 412.043 288.097C412.219 288.425 412.401 288.825 412.593 289.244C413.251 285.407 414.067 281.61 415.276 277.873C417.316 271.572 420.108 265.541 423.552 259.901C423.442 259.496 423.353 259.075 423.281 258.635C422.753 255.493 422.388 252.311 421.999 249.15C421.734 247.017 421.331 244.753 420.977 242.459C420.98 242.454 420.98 242.454 420.98 242.454C422.087 241.712 423.21 240.993 424.35 240.295C424.619 242.026 424.847 243.743 425.128 245.37C425.603 248.129 426.092 250.889 426.537 253.653C426.582 253.97 426.615 254.528 426.665 255.162C429.364 251.336 432.384 247.741 435.677 244.407C435.037 241.934 435.263 238.749 435.189 236.836C435.162 236.104 435.141 235.346 435.119 234.576C436.428 233.977 437.752 233.414 439.086 232.876C439.066 233.77 439.057 234.655 439.086 235.532C439.156 237.306 439.26 239.077 439.417 240.84C443.635 237.056 448.207 233.71 453.164 230.929C455.034 229.882 457.026 228.786 459.093 227.783C459.18 227.786 459.268 227.789 459.352 227.798C460.863 227.924 461.899 229.043 462.137 230.321C461.967 230.399 461.806 230.475 461.647 230.559C458.377 232.235 455.23 234.143 452.226 236.254C448.685 238.751 445.318 241.473 442.164 244.425C445.395 244.872 448.637 245.202 451.882 245.514C451.196 246.804 450.571 248.124 450.013 249.472C447.798 249.209 445.588 248.921 443.379 248.62C441.932 248.423 440.125 248.435 438.638 247.923C437.603 249.009 436.593 250.115 435.621 251.266C433.567 253.679 431.66 256.221 429.906 258.867C429.988 258.854 430.073 258.849 430.135 258.846C435.724 258.664 441.427 258.853 447.056 259.527C446.81 260.895 446.63 262.269 446.512 263.654C446.509 263.714 446.5 263.771 446.497 263.831C444.992 263.625 443.476 263.455 441.952 263.329C438.84 263.065 435.712 262.929 432.594 262.922C431.02 262.921 429.026 263.276 427.3 263.062C422.927 270.608 419.795 278.857 418.208 287.461C417.918 289.039 417.679 290.623 417.459 292.21C418.597 291.936 419.768 291.501 420.586 291.304C422.531 290.842 424.476 290.38 426.426 289.92C430.127 289.044 433.831 288.163 437.531 287.287C440.729 286.527 443.951 285.676 447.19 284.875C447.279 286.46 447.335 288.043 447.34 289.606C443.142 290.559 438.919 291.411 434.797 292.389C430.511 293.407 426.224 294.426 421.941 295.439C420.516 295.78 418.677 296.467 416.869 296.807C416.292 301.568 415.765 306.339 414.724 311.03C414.398 312.488 414.021 313.927 413.6 315.357C414.757 315.182 415.955 314.842 416.718 314.727C418.572 314.459 420.431 314.206 422.29 313.982C425.825 313.543 429.371 313.191 432.919 312.915C435.322 312.725 437.741 312.557 440.176 312.439C438.853 314.03 437.393 315.524 435.881 316.985C433.866 317.111 431.846 317.261 429.823 317.458C425.9 317.838 421.996 318.317 418.1 318.889C416.333 319.147 414.115 319.84 412.087 319.884C410.266 324.763 407.927 329.448 405.25 333.922C403.547 336.779 401.65 339.627 399.635 342.477C405.747 341.395 411.958 340.876 418.158 340.852C417.674 342.353 417.247 343.89 416.872 345.446C416.192 345.452 415.508 345.462 414.825 345.487C410.908 345.624 407.008 345.961 403.122 346.483C400.937 346.769 398.352 347.538 395.966 347.531C392.625 352.032 389.111 356.562 385.726 361.177C388.68 361.156 391.679 360.925 394.592 360.877C398.413 360.808 402.239 360.741 406.059 360.672C408.776 360.62 411.503 360.533 414.233 360.454C414.022 361.915 413.806 363.373 413.578 364.826C410.143 364.85 406.711 364.842 403.297 364.905C398.872 364.991 394.443 365.074 390.021 365.155C388.01 365.193 385.993 365.229 383.981 365.267C383.579 365.276 383.164 365.299 382.743 365.319C378.683 371.093 374.959 377.016 372.134 383.194C372.14 383.197 372.148 383.194 372.153 383.197C380.406 383.271 388.652 383.343 396.899 383.415C400.817 383.45 404.811 383.324 408.803 383.307C408.181 384.749 407.465 386.153 406.65 387.508Z" fill="#8690F1"/>
<path d="M365.493 372.643C365.457 379.631 367.26 387.423 370.764 394.166C371.284 395.166 371.839 396.143 372.434 397.089C375.623 402.182 379.882 406.432 385.146 408.906C399.578 415.685 416.33 416.958 431.156 410.621C434.547 409.169 438.096 406.626 439.757 403.537C440.376 402.39 440.732 401.167 440.724 399.9C440.717 399.259 440.618 398.608 440.414 397.946C439.925 396.367 438.857 395.024 437.657 393.885C434.994 391.358 431.556 389.658 427.931 389.082C440.392 388.536 453.742 385.937 462.287 376.849C463.668 375.381 464.928 373.616 465.495 371.722C465.804 370.705 465.909 369.649 465.726 368.58C465.697 368.413 465.661 368.245 465.616 368.086C464.927 365.431 462.477 363.44 459.836 362.594C457.032 361.694 454.017 361.84 451.077 361.995C463.611 357.454 473.63 346.503 477.044 333.614C477.981 330.079 478.216 325.912 476.851 322.681C476.409 321.625 475.793 320.665 474.977 319.864C474.625 319.521 474.239 319.203 473.814 318.922C470.446 316.682 465.963 317.424 462.089 318.584C452.494 321.458 443.527 326.412 435.983 333C437.396 329.653 437.97 325.839 436.937 322.356C435.906 318.87 433.087 315.813 429.522 315.1C429.439 315.085 429.356 315.069 429.271 315.057C427.85 314.811 426.45 314.93 425.09 315.304C421.871 316.196 418.878 318.531 416.355 320.88C408.438 328.254 401.598 336.784 396.127 346.115C395.376 343.579 394.595 340.982 392.975 338.89C392.135 337.804 391.007 336.88 389.755 336.314C388.661 335.823 387.474 335.606 386.298 335.802C386.23 335.814 386.163 335.826 386.097 335.839C384.615 336.146 383.34 337.056 382.163 338.004C371.854 346.315 365.557 359.399 365.493 372.643Z" fill="#E08675"/>
<path d="M385.332 387.852C380.567 390.161 375.71 392.277 370.764 394.166C366.981 395.613 363.148 396.926 359.26 398.092C357.206 398.707 357.955 401.961 360.016 401.342C364.211 400.083 368.351 398.662 372.435 397.089C377.942 394.974 383.343 392.585 388.629 389.959C391.95 392.881 395.56 395.44 399.464 397.531C411.695 404.082 426.174 406.316 439.758 403.537C440.377 402.39 440.733 401.167 440.725 399.9C423.783 403.867 405.164 399.603 391.827 388.333C401.745 383.185 411.228 377.248 420.346 370.79C434.569 376.933 451.05 377.159 465.497 371.724C465.806 370.707 465.911 369.651 465.728 368.582C465.699 368.415 465.663 368.247 465.618 368.088C452.261 373.503 437.031 373.651 423.534 368.502C428.028 365.228 432.437 361.837 436.76 358.355C450.703 347.128 463.838 334.959 476.854 322.682C476.412 321.626 475.796 320.666 474.98 319.865C468.399 326.071 461.793 332.247 455.068 338.298C442.67 349.448 429.837 360.184 416.126 369.689C414.621 359.846 416.93 349.713 418.947 340.099C420.842 331.064 424.149 322.58 429.274 315.057C427.853 314.811 426.453 314.93 425.093 315.304C424.123 316.827 423.213 318.391 422.374 319.997C417.946 328.469 415.972 337.565 414.214 346.882C412.668 355.084 411.533 363.47 413.104 371.753C411.695 372.702 410.28 373.644 408.851 374.563C402.217 378.841 395.369 382.814 388.321 386.373C386.659 382.359 385.449 378.177 384.694 373.896C382.456 361.208 384.277 347.917 389.758 336.313C388.664 335.822 387.477 335.605 386.301 335.801C385.958 336.555 385.63 337.318 385.314 338.085C378.838 353.87 378.803 372.093 385.332 387.852Z" fill="white"/>
<path d="M377.427 411.005H124.409C119.31 411.005 115.176 406.871 115.176 401.772V234.758C115.176 229.659 119.31 225.525 124.409 225.525H377.427C382.526 225.525 386.66 229.659 386.66 234.758V401.772C386.66 406.871 382.527 411.005 377.427 411.005Z" fill="#E9E9FF"/>
<path d="M371.635 240.032H130.201V404.788H371.635V240.032Z" fill="#363271"/>
<path d="M421.373 402.178V411.545C421.373 415.824 417.604 419.296 412.957 419.296H88.8789C84.2329 419.296 80.4629 415.825 80.4629 411.545V402.178C80.4629 397.899 84.2319 394.427 88.8789 394.427H412.957C417.604 394.427 421.373 397.898 421.373 402.178Z" fill="#C3B7FC"/>
<path d="M278.895 394.427V395.287C278.895 399.39 275.569 402.717 271.465 402.717H230.369C226.266 402.717 222.94 399.391 222.94 395.287V394.427H278.895Z" fill="#F1F1F1"/>
<path d="M398.41 351.043L388.545 356.178L397.392 373.174L407.257 368.039L398.41 351.043Z" fill="#514E92"/>
<g opacity="0.33">
<path d="M357.608 276.898L370.446 356.179C366.299 355.875 362.227 354.946 358.373 353.437L347.015 283.294C349.244 281.444 351.703 279.798 354.378 278.406C355.441 277.853 356.518 277.35 357.608 276.898Z" fill="white"/>
<path d="M389.971 277.202L401.059 345.682C398.52 347.967 395.654 349.97 392.483 351.62C389.357 353.247 386.12 354.435 382.841 355.203L369.677 273.906C376.656 273.271 383.643 274.441 389.971 277.202Z" fill="white"/>
</g>
<path d="M418.122 291.753C405.304 267.128 374.996 257.52 350.345 270.232C350.285 270.261 350.228 270.291 350.169 270.323C325.486 283.168 315.892 313.592 328.739 338.275C341.586 362.958 372.008 372.554 396.69 359.707C396.75 359.675 396.807 359.645 396.865 359.613C421.419 346.715 430.94 316.378 418.122 291.753ZM401.059 345.682C398.52 347.968 395.654 349.971 392.484 351.62C389.357 353.247 386.12 354.434 382.841 355.204C378.73 356.169 374.551 356.48 370.444 356.178C366.297 355.875 362.225 354.946 358.373 353.437C349.403 349.928 341.618 343.279 336.822 334.067C327.693 316.525 332.403 295.441 347.015 283.295C349.244 281.444 351.701 279.8 354.378 278.408C355.44 277.855 356.517 277.351 357.608 276.899C361.54 275.259 365.607 274.277 369.678 273.907C376.656 273.271 383.643 274.441 389.972 277.205C398.311 280.848 405.508 287.261 410.038 295.962C418.91 313.007 414.714 333.397 401.059 345.682Z" fill="#E9A82F"/>
<path opacity="0.13" d="M391.255 348.833C391.197 348.865 391.138 348.894 391.081 348.924C372.353 358.673 349.265 351.391 339.518 332.664C329.771 313.934 337.051 290.849 355.781 281.102C355.838 281.072 355.898 281.04 355.955 281.013C374.653 271.399 397.626 278.692 407.343 297.363C417.06 316.032 409.854 339.034 391.255 348.833Z" fill="white"/>
<path d="M411.157 364.59L437.885 415.943C440.577 421.115 438.711 427.555 433.595 430.34C433.579 430.35 433.564 430.358 433.547 430.367C428.329 433.173 421.777 431.145 419.05 425.904L392.258 374.427C391.012 372.034 391.942 369.087 394.335 367.841L404.572 362.513C406.964 361.267 409.912 362.197 411.157 364.59Z" fill="#E9A82F"/>
<path d="M339.518 332.663C349.266 351.392 372.352 358.672 391.08 348.925C391.138 348.895 391.197 348.864 391.254 348.832L396.865 359.612C396.807 359.644 396.749 359.674 396.691 359.705C372.008 372.552 341.585 362.957 328.738 338.274C315.891 313.591 325.486 283.168 350.169 270.321C350.227 270.291 350.286 270.26 350.345 270.231L355.956 281.011C355.897 281.04 355.839 281.07 355.78 281.101C337.051 290.849 329.77 313.935 339.518 332.663Z" fill="#EFC45E"/>
<path d="M394.335 367.841L399.632 365.084L433.596 430.339C433.58 430.349 433.565 430.357 433.548 430.366C428.33 433.172 421.778 431.144 419.051 425.903L392.259 374.426C391.012 372.034 391.942 369.086 394.335 367.841Z" fill="#EFC45E"/>
<path d="M410.038 295.96C405.508 287.259 398.311 280.845 389.972 277.203C383.643 274.44 376.656 273.269 369.678 273.905C365.607 274.275 361.54 275.258 357.608 276.897C356.518 277.349 355.441 277.853 354.378 278.406C351.701 279.798 349.244 281.443 347.015 283.293C332.403 295.439 327.693 316.523 336.822 334.065C341.619 343.278 349.404 349.926 358.373 353.435C362.225 354.944 366.297 355.873 370.444 356.176C374.55 356.478 378.729 356.168 382.841 355.202C386.12 354.432 389.357 353.246 392.484 351.618C395.654 349.968 398.52 347.966 401.059 345.68C414.714 333.396 418.91 313.006 410.038 295.96ZM391.255 348.833C391.197 348.865 391.138 348.894 391.081 348.924C372.353 358.673 349.265 351.391 339.518 332.664C329.771 313.934 337.051 290.849 355.781 281.102C355.838 281.072 355.898 281.04 355.955 281.013C374.653 271.399 397.626 278.692 407.343 297.363C417.06 316.032 409.854 339.034 391.255 348.833Z" fill="#E79B24"/>
<path d="M286.572 207.347C283.684 202.339 279.924 197.478 278.93 192.262C275.864 176.16 285.105 153.461 266.709 143.292C257.937 138.444 246.395 139.15 237.828 144.099C231.036 148.023 226.407 154.724 225.606 162.582C225.051 168.032 225.074 181.604 225.566 187.059C226.401 196.356 224.363 196.472 219.551 204.413C216.238 209.88 212.587 216.535 215.259 223.058C216.691 226.552 219.999 229.209 223.72 229.853C227.066 230.432 230.884 229.575 233.605 231.607C236.107 233.475 236.865 236.914 239.423 238.782C242.927 241.341 249.378 242.072 253.595 241.993C258.47 241.903 263.474 240.194 266.748 236.579C272.027 230.749 273.002 231.172 280.627 229.853C284.346 229.209 287.656 226.552 289.088 223.058C291.42 217.36 289.419 212.284 286.572 207.347Z" fill="#4D4D96"/>
<path d="M244.422 372.425L243.685 398.015C243.675 398.385 243.662 398.767 243.649 399.168C243.577 400.862 243.405 402.82 242.745 404.858C241.724 408.008 237.344 413.823 234.9 416.045C232.769 417.984 229.017 419.621 226.067 418.456C225.509 418.235 224.983 417.917 224.496 417.48C220.407 413.797 225.351 408.008 228.36 403.788C229.183 402.636 229.858 401.601 230.167 400.756C231.017 398.443 231.225 372.044 231.381 372.049L244.422 372.425Z" fill="#F0C9A1"/>
<path d="M243.647 399.168C243.575 400.863 243.403 402.821 242.743 404.859C241.722 408.008 237.342 413.823 234.898 416.046C232.767 417.984 229.015 419.622 226.065 418.457C225.507 418.236 224.981 417.917 224.494 417.481C220.405 413.797 225.349 408.008 228.358 403.788C228.178 405.016 228.003 406.357 228.317 407.211C229.082 409.267 231.78 410.058 233.864 409.37C235.943 408.681 237.485 406.928 238.721 405.114C239.958 403.306 241.024 401.34 242.643 399.859C242.941 399.585 243.279 399.32 243.647 399.168Z" fill="#8690F1"/>
<path d="M265.226 372.425L265.963 398.015C265.971 398.385 265.986 398.767 265.999 399.168C266.071 400.862 266.242 402.82 266.902 404.858C267.924 408.008 272.306 413.823 274.747 416.045C276.878 417.984 280.631 419.621 283.581 418.456C284.138 418.235 284.664 417.917 285.152 417.48C289.241 413.797 284.297 408.008 281.288 403.788C280.464 402.636 279.791 401.601 279.48 400.756C278.63 398.443 278.423 372.044 278.266 372.049L265.226 372.425Z" fill="#F0C9A1"/>
<path d="M265.999 399.168C266.071 400.863 266.243 402.821 266.903 404.859C267.924 408.008 272.306 413.823 274.748 416.046C276.879 417.984 280.631 419.622 283.581 418.457C284.139 418.236 284.665 417.917 285.152 417.481C289.241 413.797 284.297 408.008 281.288 403.788C281.468 405.016 281.643 406.357 281.329 407.211C280.564 409.267 277.866 410.058 275.784 409.37C273.707 408.681 272.162 406.928 270.925 405.114C269.688 403.306 268.622 401.34 267.003 399.859C266.705 399.585 266.368 399.32 265.999 399.168Z" fill="#8690F1"/>
<path d="M280.385 265.67C266.09 266.26 241.426 267.082 238.358 267.105C233.522 267.141 229.717 267.056 226.709 267.208C226.565 269.282 226.429 271.356 226.295 273.425C225.864 280.064 217.357 389.078 218.945 391.098C220.389 392.923 237.181 393.423 247.976 393.18C248.204 387.728 250.534 309.941 251.229 285.457H255.627C257.563 316.322 258.627 361.493 260.58 392.096C271.313 391.331 288.425 390.513 288.479 389.344C289.239 372.92 281.74 303.18 280.385 265.67Z" fill="#DD6E5C"/>
<path d="M280.386 265.669C266.09 266.259 241.426 267.081 238.359 267.104C233.523 267.14 229.718 267.055 226.709 267.207C227.726 252.565 229.007 231.135 231.063 216.621C231.396 214.272 231.859 211.929 232.56 209.69C233.977 205.138 236.357 201.008 240.539 198.112C246.176 194.207 253.769 192.849 260.359 195.021C266.466 197.031 271.096 202.168 273.799 207.903C276.503 213.643 277.519 219.986 278.351 226.257C279.186 232.536 279.864 251.221 280.386 265.669Z" fill="white"/>
<path d="M276.449 247.613C260.936 249.76 245.248 250.131 229.652 248.721C227.834 248.556 226.291 250.424 226.303 252.12C226.318 254.093 227.88 255.304 229.702 255.469C245.299 256.88 260.987 256.509 276.5 254.361C278.304 254.111 279.864 252.954 279.849 250.962C279.836 249.321 278.267 247.361 276.449 247.613Z" fill="#DFDBFC"/>
<path d="M271.936 230.503C257.86 231.497 243.747 231.701 229.648 231.113C225.307 230.931 225.367 237.68 229.698 237.859C243.796 238.446 257.91 238.243 271.985 237.25C276.297 236.947 276.277 230.198 271.936 230.503Z" fill="#DFDBFC"/>
<path d="M269.72 213.934C264.447 215.668 258.658 214.964 253.201 214.81C247.296 214.644 241.393 214.477 235.488 214.312C231.144 214.189 231.201 220.936 235.539 221.058C241.738 221.233 247.939 221.408 254.138 221.583C259.946 221.746 265.951 222.274 271.563 220.428C275.672 219.076 273.861 212.573 269.72 213.934Z" fill="#DFDBFC"/>
<path d="M344.251 211.906C345.531 211.399 346.977 210.579 347.067 209.206C347.124 208.348 346.582 207.534 345.871 207.05C345.16 206.566 344.3 206.355 343.455 206.197C340.244 205.594 336.919 205.602 333.711 206.221C333.783 205.21 333.847 204.144 333.409 203.227C332.971 202.312 331.845 201.642 330.921 202.064C329.947 202.51 329.768 203.773 329.362 204.764C328.74 206.285 327.39 207.361 326.195 208.49C325 209.619 323.85 211.023 323.845 212.667C323.84 214.065 324.69 215.344 325.755 216.248C328.968 218.979 330.853 216.797 334.166 215.462C337.475 214.128 340.935 213.218 344.251 211.906Z" fill="#F0C9A1"/>
<path d="M333.954 215.79C332.542 214.004 330.802 212.494 328.931 211.206C327.37 210.135 325.724 209.209 324.037 208.349C317.905 216.004 310.822 222.976 302.959 229.09C300.903 230.687 298.318 232.513 296.446 232.428C293.887 232.315 291.107 228.636 288.971 225.438C284.328 218.488 280.17 210.07 274.842 203.461C273.835 202.212 261.656 191.891 261.166 196.598C260.769 200.421 262.653 225.322 263.387 236.626C264.854 259.236 266.324 281.844 267.791 304.453C268.001 307.673 269.512 341.975 270.231 342.011C277.4 342.37 284.597 342.257 291.746 341.669C286.163 306.902 283.666 271.819 281.69 236.741C284.82 240.403 289.407 244.192 295.84 244.474C296.092 244.488 296.343 244.492 296.592 244.492C302.484 244.492 307.257 241.42 311.17 238.375C319.695 231.745 327.386 224.205 334.062 215.924C334.023 215.875 333.987 215.831 333.954 215.79Z" fill="#8690F1"/>
<path d="M161.82 212.356C160.54 211.849 159.094 211.029 159.004 209.656C158.947 208.798 159.49 207.984 160.2 207.5C160.911 207.016 161.771 206.806 162.616 206.647C165.828 206.044 169.152 206.052 172.36 206.672C172.288 205.66 172.224 204.594 172.662 203.677C173.1 202.762 174.226 202.092 175.15 202.514C176.124 202.96 176.304 204.223 176.709 205.214C177.332 206.735 178.68 207.811 179.876 208.94C181.071 210.069 182.222 211.473 182.227 213.117C182.231 214.515 181.382 215.794 180.316 216.698C177.103 219.429 175.217 217.247 171.906 215.912C168.598 214.579 165.136 213.668 161.82 212.356Z" fill="#F0C9A1"/>
<path d="M244.909 197.047C244.527 193.384 237.612 198.987 236.647 199.75C232.594 202.956 230.45 205.918 227.701 210.031L217.102 225.888C214.966 229.086 212.186 232.765 209.627 232.878C207.755 232.963 205.168 231.137 203.114 229.541C195.251 223.428 188.166 216.456 182.036 208.799C180.349 209.659 178.703 210.585 177.143 211.656C175.271 212.942 173.531 214.454 172.119 216.24C172.088 216.281 172.052 216.325 172.016 216.376C178.69 224.657 186.383 232.196 194.908 238.827C198.822 241.872 203.594 244.944 209.486 244.944C209.733 244.944 209.986 244.939 210.238 244.926C216.669 244.644 221.257 240.855 224.388 237.193C222.412 272.271 219.915 307.355 214.332 342.121C221.481 342.708 228.678 342.822 235.847 342.462C236.564 342.426 238.076 308.125 238.287 304.905C239.754 282.296 241.224 259.688 242.691 237.078C243.422 225.77 245.306 200.871 244.909 197.047Z" fill="#8690F1"/>
<path d="M259.808 178.4V197.968C259.808 201.819 256.686 204.941 252.835 204.941C248.985 204.941 245.863 201.819 245.863 197.968V178.4H259.808Z" fill="#F0C9A1"/>
<path d="M259.808 182.108V195.608C256.84 196.506 253.788 197.155 250.699 197.092C249.107 197.06 247.439 196.83 245.863 196.35V184.331C246.654 183.953 247.488 183.651 248.315 183.399C252.02 182.27 255.939 181.828 259.808 182.108Z" fill="#E9B588"/>
<path d="M234.038 171.879C234.038 184.424 240.698 194.595 251.132 194.595C261.565 194.595 270.025 184.424 270.025 171.879C270.025 159.334 261.567 149.163 251.132 149.163C240.696 149.163 234.038 159.334 234.038 171.879Z" fill="#F0C9A1"/>
<path d="M265.223 174C264.359 177.625 266.008 181.124 268.907 181.816C271.806 182.507 274.859 180.131 275.724 176.506C276.588 172.881 274.939 169.382 272.04 168.69C269.139 167.997 266.088 170.375 265.223 174Z" fill="#F0C9A1"/>
<path d="M227.888 176.506C227.024 172.881 228.673 169.382 231.572 168.69C234.471 167.997 237.523 170.375 238.389 174C239.253 177.625 237.604 181.124 234.705 181.816C231.806 182.507 228.753 180.131 227.888 176.506Z" fill="#F0C9A1"/>
<path d="M237.488 148.736C233.68 151.426 230.387 155.324 229.088 160.129C228.702 161.554 228.507 163.139 229.058 164.496C229.805 166.333 231.776 167.249 233.587 167.148C235.398 167.047 237.083 166.123 238.665 165.139C241.992 163.07 245.143 160.65 248.061 157.919C247.07 159.896 246.083 162.389 247.19 164.288C248.566 166.648 251.823 165.948 254.088 164.697C256.412 163.415 258.607 161.845 260.617 160.022C260.209 162.24 262.396 164.036 264.409 164.361C267.016 164.782 269.811 163.734 271.554 161.537C273.297 159.339 273.87 156.031 272.862 153.325C272.082 151.233 270.494 149.649 268.832 148.338C258.707 140.356 247.575 141.607 237.488 148.736Z" fill="#4D4D96"/>
<path d="M259.353 166.956C255.782 166.956 252.87 169.692 252.517 173.171H249.845C249.493 169.69 246.579 166.956 243.008 166.956C239.2 166.956 236.102 170.055 236.102 173.863C236.102 177.671 239.2 180.77 243.008 180.77C246.579 180.77 249.492 178.034 249.845 174.554H252.517C252.87 178.034 255.782 180.77 259.353 180.77C263.161 180.77 266.26 177.671 266.26 173.863C266.26 170.053 263.161 166.956 259.353 166.956ZM243.01 179.387C239.964 179.387 237.484 176.909 237.484 173.861C237.484 170.815 239.964 168.335 243.01 168.335C246.056 168.335 248.534 170.815 248.534 173.861C248.534 176.909 246.056 179.387 243.01 179.387ZM259.353 179.387C256.307 179.387 253.828 176.909 253.828 173.861C253.828 170.815 256.307 168.335 259.353 168.335C262.4 168.335 264.877 170.815 264.877 173.861C264.879 176.909 262.4 179.387 259.353 179.387Z" fill="white"/>
</svg>
