<svg width="40" height="40" viewBox="0 0 40 40" fill="none" xmlns="http://www.w3.org/2000/svg">
<path fill-rule="evenodd" clip-rule="evenodd" d="M20.525 35.475C20.875 35.825 21.3026 36 21.8077 36H33.1923C33.6974 36 34.125 35.825 34.475 35.475C34.825 35.125 35 34.6974 35 34.1923V22.25L29.75 17H21.8077C21.3026 17 20.875 17.175 20.525 17.525C20.175 17.875 20 18.3026 20 18.8077V34.1923C20 34.6974 20.175 35.125 20.525 35.475ZM33.5 23H29V18.5L33.5 23ZM21.8077 33.8845H22.6923V31.8845H23.8077C24.0589 31.8845 24.2692 31.7999 24.4385 31.6307C24.6077 31.4614 24.6923 31.2512 24.6923 31V29.8845C24.6923 29.6333 24.6077 29.4231 24.4385 29.2537C24.2692 29.0846 24.0589 29 23.8077 29H21.8077V33.8845ZM22.6923 29.8845V31H23.8077V29.8845H23.25H22.6923ZM27.673 33.8845H25.7115V29H27.673C27.9243 29 28.1346 29.0846 28.3038 29.2537C28.4731 29.4231 28.5578 29.6333 28.5578 29.8845V33C28.5578 33.2512 28.4731 33.4614 28.3038 33.6307C28.1346 33.7999 27.9243 33.8845 27.673 33.8845ZM26.596 33V29.8845H27.673V33H26.596ZM30.5577 33.8845H29.673V29H31.75V29.8845H30.5577V31H31.75V31.8845H30.5577V33.8845Z" fill="#65621B"/>
<path fill-rule="evenodd" clip-rule="evenodd" d="M4.875 32.7917C5.45833 33.375 6.17097 33.6667 7.01292 33.6667H21.15V31.1667H7.01292C6.88458 31.1667 6.76708 31.1132 6.66042 31.0063C6.55347 30.8996 6.5 30.7821 6.5 30.6538V5.01292C6.5 4.88458 6.55347 4.76708 6.66042 4.66042C6.76708 4.55347 6.88458 4.5 7.01292 4.5H13.0065H19V12H26.5L26.5 27.5H29L29 10.75L20.25 2H7.01292C6.17097 2 5.45833 2.29167 4.875 2.875C4.29167 3.45833 4 4.17097 4 5.01292V30.6538C4 31.4957 4.29167 32.2083 4.875 32.7917Z" fill="#65621B"/>
<path d="M13 28H20.2948C20.3462 28 20.3932 27.9786 20.4358 27.9358C20.4786 27.8932 20.5 27.8462 20.5 27.7948V26.05H13V28ZM9.83333 21.95H12V20H10.0385C9.98717 20 9.94017 20.0214 9.8975 20.0642C9.85472 20.1068 9.83333 20.1538 9.83333 20.2052V21.95ZM9.83333 25.0667H12V22.95H9.83333V25.0667ZM10.0385 28H12V26.05H9.83333V27.7948C9.83333 27.8462 9.85472 27.8932 9.8975 27.9358C9.94017 27.9786 9.98717 28 10.0385 28ZM13 25.0667H20.5V22.95H13V25.0667ZM13 21.95H20.5V20.2052C20.5 20.1538 20.4786 20.1068 20.4358 20.0642C20.3932 20.0214 20.3462 20 20.2948 20H13V21.95ZM10.0385 29C9.70172 29 9.41667 28.8833 9.18333 28.65C8.95 28.4167 8.83333 28.1316 8.83333 27.7948V20.2052C8.83333 19.8684 8.95 19.5833 9.18333 19.35C9.41667 19.1167 9.70172 19 10.0385 19H20.2948C20.6316 19 20.9167 19.1167 21.15 19.35C21.3833 19.5833 21.5 19.8684 21.5 20.2052V27.7948C21.5 28.1316 21.3833 28.4167 21.15 28.65C20.9167 28.8833 20.6316 29 20.2948 29H10.0385Z" fill="#65621B"/>
</svg>
