<svg width="130" height="40" viewBox="0 0 130 40" fill="none" xmlns="http://www.w3.org/2000/svg">
<mask id="mask0_194_356" style="mask-type:luminance" maskUnits="userSpaceOnUse" x="0" y="0" width="130" height="40">
<path d="M130 0H0V40H130V0Z" fill="white"/>
</mask>
<g mask="url(#mask0_194_356)">
<mask id="mask1_194_356" style="mask-type:luminance" maskUnits="userSpaceOnUse" x="-8" y="-23" width="147" height="87">
<path d="M139 -23H-8V64H139V-23Z" fill="white"/>
</mask>
<g mask="url(#mask1_194_356)">
<path d="M40.0508 31.0106V18.5254H47.8448V20.1687H41.9699V24.1829H47.2834V25.8161H41.9699V31.0106H40.0508Z" fill="black"/>
<path d="M50.0547 31.0109V21.6394H51.8463V23.1453H51.9483C52.1219 22.6315 52.423 22.2295 52.8569 21.9395C53.2856 21.6495 53.7807 21.502 54.3269 21.502C54.4443 21.502 54.577 21.5071 54.7301 21.5122C54.8832 21.5223 55.0057 21.5325 55.1078 21.5478V23.3081C55.0415 23.2878 54.9139 23.2623 54.7199 23.242C54.531 23.2216 54.3371 23.2064 54.138 23.2064C53.7144 23.2064 53.3265 23.298 52.9845 23.476C52.6425 23.6541 52.3771 23.9034 52.1831 24.2188C51.9943 24.5343 51.8973 24.9006 51.8973 25.3127V31.0008H50.0547V31.0109Z" fill="black"/>
<path d="M60.762 31.2042C59.8382 31.2042 59.0368 31.0057 58.3682 30.6089C57.6944 30.2121 57.1789 29.6524 56.8165 28.935C56.4541 28.2126 56.2754 27.368 56.2754 26.3963C56.2754 25.4347 56.4541 24.5901 56.8114 23.8575C57.1687 23.1249 57.6689 22.555 58.3222 22.1429C58.9704 21.7308 59.7361 21.5273 60.6089 21.5273C61.1448 21.5273 61.6654 21.6138 62.1657 21.7919C62.6659 21.9699 63.115 22.2447 63.5081 22.6161C63.9011 22.9875 64.2226 23.4759 64.4523 24.0712C64.6871 24.6664 64.7994 25.3889 64.7994 26.2385V26.8949H57.3116V25.5212H63.85L62.9823 25.974C62.9823 25.3991 62.8904 24.8903 62.7118 24.4527C62.5331 24.0152 62.2677 23.6743 61.9155 23.425C61.5634 23.1808 61.1295 23.0587 60.5987 23.0587C60.078 23.0587 59.634 23.1859 59.2614 23.4352C58.8888 23.6845 58.608 24.0152 58.4141 24.4273C58.2201 24.8394 58.1232 25.2871 58.1232 25.7705V26.7066C58.1232 27.3477 58.2354 27.892 58.4549 28.3347C58.6744 28.7773 58.9858 29.1131 59.3839 29.342C59.782 29.5659 60.2414 29.6829 60.7722 29.6829C61.1193 29.6829 61.4358 29.6321 61.7114 29.5354C61.9921 29.4387 62.232 29.2912 62.4362 29.0928C62.6403 28.8943 62.7986 28.6501 62.9007 28.3601L64.6412 28.7722C64.4881 29.2505 64.2379 29.6778 63.8807 30.0442C63.5234 30.4105 63.0844 30.7005 62.5536 30.904C62.038 31.0973 61.4358 31.2042 60.762 31.2042Z" fill="black"/>
<path d="M70.8752 31.2042C69.9514 31.2042 69.15 31.0057 68.4814 30.6089C67.8076 30.2121 67.2921 29.6524 66.9297 28.935C66.5673 28.2126 66.3887 27.368 66.3887 26.3963C66.3887 25.4347 66.5673 24.5901 66.9246 23.8575C67.2819 23.1249 67.7821 22.555 68.4354 22.1429C69.0837 21.7308 69.8493 21.5273 70.7221 21.5273C71.258 21.5273 71.7787 21.6138 72.2789 21.7919C72.7791 21.9699 73.2283 22.2447 73.6213 22.6161C74.0143 22.9875 74.3359 23.4759 74.5655 24.0712C74.8003 24.6664 74.9126 25.3889 74.9126 26.2385V26.8949H67.4248V25.5212H73.9633L73.0955 25.974C73.0955 25.3991 73.0037 24.8903 72.825 24.4527C72.6464 24.0152 72.381 23.6743 72.0288 23.425C71.6766 23.1808 71.2427 23.0587 70.7119 23.0587C70.1913 23.0587 69.7472 23.1859 69.3746 23.4352C69.002 23.6845 68.7213 24.0152 68.5273 24.4273C68.3334 24.8394 68.2364 25.2871 68.2364 25.7705V26.7066C68.2364 27.3477 68.3487 27.892 68.5681 28.3347C68.7876 28.7773 69.099 29.1131 69.4971 29.342C69.8952 29.5659 70.3546 29.6829 70.8854 29.6829C71.2325 29.6829 71.549 29.6321 71.8246 29.5354C72.1053 29.4387 72.3452 29.2912 72.5494 29.0928C72.7536 28.8943 72.9118 28.6501 73.0139 28.3601L74.7544 28.7722C74.6013 29.2505 74.3512 29.6778 73.9939 30.0442C73.6366 30.4105 73.1976 30.7005 72.6668 30.904C72.1513 31.0973 71.549 31.2042 70.8752 31.2042Z" fill="black"/>
<path d="M76.1211 31.0106L80.577 18.5254H82.93L87.4676 31.0106H85.3902L82.9556 24.0608C82.7667 23.4961 82.5574 22.8296 82.3277 22.0664C82.1032 21.3033 81.8377 20.3824 81.5417 19.3089H81.9296C81.6438 20.3926 81.3886 21.3236 81.1589 22.097C80.9343 22.8703 80.7301 23.5266 80.5566 24.0608L78.1934 31.0056H76.1211V31.0106ZM78.5353 27.7138V26.1213H85.0483V27.7138H78.5353Z" fill="black"/>
<path d="M90.0758 20.2092C89.7543 20.2092 89.4838 20.1024 89.2541 19.8887C89.0244 19.675 88.9121 19.4206 88.9121 19.1205C88.9121 18.8152 89.0244 18.5557 89.2541 18.342C89.4786 18.1284 89.7543 18.0215 90.0758 18.0215C90.3974 18.0215 90.6679 18.1284 90.8976 18.342C91.1273 18.5557 91.2396 18.8152 91.2396 19.1205C91.2396 19.4206 91.1222 19.6801 90.8976 19.8887C90.6679 20.1024 90.3974 20.2092 90.0758 20.2092ZM89.1418 31.0105V21.6389H90.9895V31.0054H89.1418V31.0105Z" fill="black"/>
<path d="M93.623 31.0106V18.5254H98.1096C99.0743 18.5254 99.8756 18.7034 100.524 19.0596C101.167 19.4157 101.652 19.8991 101.968 20.5096C102.29 21.1201 102.448 21.807 102.448 22.5803C102.448 23.3485 102.285 24.0405 101.963 24.6561C101.642 25.2666 101.157 25.7499 100.514 26.1061C99.8705 26.4622 99.0641 26.6403 98.0943 26.6403H95.0267V25.0224H97.9105C98.5281 25.0224 99.0232 24.9156 99.406 24.7019C99.7889 24.4882 100.064 24.1982 100.243 23.8319C100.422 23.4656 100.509 23.0484 100.509 22.5854C100.509 22.1173 100.422 21.7001 100.243 21.3338C100.064 20.9675 99.7889 20.6826 99.4009 20.474C99.013 20.2654 98.5128 20.1636 97.8901 20.1636H95.5371V31.0157H93.623V31.0106Z" fill="black"/>
<path d="M106.588 18.5254V31.0106H104.674V18.5254H106.588ZM108.737 31.0106H105.644V29.3368H108.635C109.579 29.3368 110.37 29.1587 110.998 28.8077C111.626 28.4566 112.095 27.9377 112.412 27.2508C112.723 26.5691 112.881 25.7347 112.881 24.7477C112.881 23.7708 112.728 22.9415 112.417 22.2699C112.105 21.5933 111.641 21.0794 111.028 20.7284C110.416 20.3773 109.65 20.1992 108.737 20.1992H105.577V18.5254H108.864C110.1 18.5254 111.151 18.7747 112.034 19.2733C112.912 19.7719 113.591 20.4842 114.06 21.4152C114.53 22.3463 114.765 23.4605 114.765 24.7527C114.765 26.0552 114.53 27.1694 114.055 28.1056C113.581 29.0366 112.897 29.754 111.993 30.2577C111.095 30.7563 110.008 31.0106 108.737 31.0106Z" fill="black"/>
<path d="M117.092 31.0106V18.5254H124.886V20.1687H119.011V24.1829H124.324V25.8161H119.011V31.0106H117.092Z" fill="black"/>
<path d="M14.9576 10.3701H11.5685C11.2877 10.3701 11.053 10.5584 11.0019 10.8179L6.42861 35.478C6.36736 35.8087 6.63788 36.114 6.99517 36.114H10.3843C10.665 36.114 10.8998 35.9258 10.9509 35.6663L15.5242 11.0061C15.5855 10.6754 15.3149 10.3701 14.9576 10.3701Z" fill="#0A0F25"/>
<path d="M35.2366 10.3701H18.495C18.1428 10.3701 17.8416 10.6245 17.7804 10.9705L17.2393 14.0638C17.1628 14.5065 17.5048 14.9135 17.9539 14.9135H34.7007C35.0529 14.9135 35.354 14.6591 35.4153 14.3131L35.9563 11.2198C36.0329 10.7772 35.6909 10.3701 35.2366 10.3701Z" fill="#2869D9"/>
<path d="M29.5206 19.2021H16.5203C16.1681 19.2021 15.867 19.4565 15.8057 19.8025L15.2647 22.8958C15.1881 23.3384 15.5301 23.7454 15.9792 23.7454H28.9796C29.3317 23.7454 29.6329 23.4911 29.6941 23.1451L30.2352 20.0518C30.3169 19.604 29.9749 19.2021 29.5206 19.2021Z" fill="#2869D9"/>
<path d="M23.272 28.0293H14.5489C14.1967 28.0293 13.8956 28.2836 13.8344 28.6296L13.2627 31.9061C13.1861 32.3487 13.5281 32.7558 13.9773 32.7558H22.7003C23.0525 32.7558 23.3536 32.5014 23.4149 32.1554L23.9865 28.8789C24.0682 28.4363 23.7262 28.0293 23.272 28.0293Z" fill="#2869D9"/>
<path d="M15.3502 5.37379C14.9061 5.45011 14.5591 5.80116 14.4774 6.24379C14.4723 6.26414 14.4468 6.26414 14.4468 6.24379C14.3702 5.80116 14.018 5.4552 13.574 5.37379C13.5535 5.36871 13.5535 5.34327 13.574 5.34327C14.018 5.26695 14.3651 4.9159 14.4468 4.47327C14.4519 4.45292 14.4774 4.45292 14.4774 4.47327C14.554 4.9159 14.9061 5.26186 15.3502 5.34327C15.3706 5.34327 15.3706 5.36871 15.3502 5.37379Z" fill="#6C2EF2"/>
<path d="M13.5383 7.41933C12.788 7.55161 12.1908 8.14179 12.0581 8.88968C12.053 8.92021 12.0071 8.92021 12.002 8.88968C11.8692 8.14179 11.2772 7.54652 10.5269 7.41933C10.4962 7.41424 10.4962 7.36845 10.5269 7.36336C11.2772 7.23108 11.8744 6.64091 12.002 5.89301C12.0071 5.86249 12.053 5.86249 12.0581 5.89301C12.1908 6.64091 12.7829 7.23617 13.5383 7.36336C13.574 7.36845 13.574 7.41424 13.5383 7.41933Z" fill="#6C2EF2"/>
<path d="M16.1722 8.40621C15.6771 8.4927 15.2892 8.87937 15.2024 9.37288C15.1973 9.39323 15.1718 9.39323 15.1667 9.37288C15.0799 8.87937 14.692 8.4927 14.1969 8.40621C14.1765 8.40112 14.1765 8.37568 14.1969 8.3706C14.692 8.28411 15.0799 7.89744 15.1667 7.40393C15.1718 7.38358 15.1973 7.38358 15.2024 7.40393C15.2892 7.89744 15.6771 8.28411 16.1722 8.3706C16.1927 8.37568 16.1927 8.40621 16.1722 8.40621Z" fill="#6C2EF2"/>
</g>
</g>
</svg>
