<svg width="120" height="24" viewBox="0 0 120 24" fill="none" xmlns="http://www.w3.org/2000/svg">
<g clip-path="url(#clip0_64_508)">
<path fill-rule="evenodd" clip-rule="evenodd" d="M14.6667 7.75757C14.6667 8.6703 13.2795 9.46523 11.23 9.8788C13.2795 10.2923 14.6667 11.0873 14.6667 12C14.6667 12.9127 13.2795 13.7077 11.23 14.1212C13.2795 14.5348 14.6667 15.3297 14.6667 16.2424C14.6667 17.5813 11.6819 18.6667 8 18.6667C4.3181 18.6667 1.33333 17.5813 1.33333 16.2424C1.33333 15.3297 2.72048 14.5348 4.77 14.1212C2.72048 13.7077 1.33333 12.9127 1.33333 12C1.33333 11.0873 2.72048 10.2923 4.77 9.8788C2.72048 9.46523 1.33333 8.6703 1.33333 7.75757C1.33333 6.4187 4.3181 5.33333 8 5.33333C11.6819 5.33333 14.6667 6.4187 14.6667 7.75757Z" fill="#2869DA"/>
</g>
<path d="M25.1378 18.5V5.40909H30.3026C31.2955 5.40909 32.1413 5.59872 32.8402 5.97798C33.5391 6.35298 34.0717 6.875 34.4382 7.54403C34.8089 8.20881 34.9943 8.97585 34.9943 9.84517C34.9943 10.7145 34.8068 11.4815 34.4318 12.1463C34.0568 12.8111 33.5135 13.3288 32.8018 13.6996C32.0945 14.0703 31.2379 14.2557 30.2322 14.2557H26.9403V12.0376H29.7848C30.3175 12.0376 30.7564 11.946 31.1016 11.7628C31.451 11.5753 31.7109 11.3175 31.8814 10.9893C32.0561 10.657 32.1435 10.2756 32.1435 9.84517C32.1435 9.41051 32.0561 9.03125 31.8814 8.70739C31.7109 8.37926 31.451 8.12571 31.1016 7.94673C30.7521 7.76349 30.3089 7.67188 29.772 7.67188H27.9055V18.5H25.1378ZM41.4327 18.5H36.7921V5.40909H41.4711C42.7878 5.40909 43.9213 5.67116 44.8716 6.19531C45.8219 6.7152 46.5527 7.46307 47.0641 8.43892C47.5797 9.41477 47.8375 10.5824 47.8375 11.9418C47.8375 13.3054 47.5797 14.4773 47.0641 15.4574C46.5527 16.4375 45.8176 17.1896 44.8588 17.7138C43.9043 18.2379 42.7623 18.5 41.4327 18.5ZM39.5598 16.1286H41.3176C42.1358 16.1286 42.824 15.9837 43.3823 15.6939C43.9448 15.3999 44.3667 14.946 44.6479 14.3324C44.9334 13.7145 45.0762 12.9176 45.0762 11.9418C45.0762 10.9744 44.9334 10.1839 44.6479 9.57031C44.3667 8.95668 43.9469 8.50497 43.3887 8.2152C42.8304 7.92543 42.1422 7.78054 41.324 7.78054H39.5598V16.1286ZM49.8878 18.5V5.40909H58.5554V7.69105H52.6555V10.8104H57.9801V13.0923H52.6555V18.5H49.8878ZM64.5831 18.5V5.40909H73.2507V7.69105H67.3509V10.8104H72.6754V13.0923H67.3509V18.5H64.5831ZM74.9031 18.5V8.68182H77.543V10.3949H77.6452C77.8242 9.78551 78.1246 9.32528 78.5465 9.0142C78.9684 8.69886 79.4542 8.54119 80.0039 8.54119C80.1403 8.54119 80.2873 8.54972 80.445 8.56676C80.6026 8.58381 80.7411 8.60724 80.8604 8.63707V11.0533C80.7326 11.0149 80.5558 10.9808 80.3299 10.951C80.104 10.9212 79.8974 10.9062 79.7099 10.9062C79.3093 10.9062 78.9513 10.9936 78.636 11.1683C78.3249 11.3388 78.0778 11.5774 77.8945 11.8842C77.7156 12.1911 77.6261 12.5447 77.6261 12.9453V18.5H74.9031ZM82.2683 18.5V8.68182H84.9913V18.5H82.2683ZM83.6362 7.41619C83.2314 7.41619 82.8841 7.28196 82.5943 7.01349C82.3088 6.74077 82.166 6.41477 82.166 6.03551C82.166 5.66051 82.3088 5.33878 82.5943 5.07031C82.8841 4.79758 83.2314 4.66122 83.6362 4.66122C84.041 4.66122 84.3862 4.79758 84.6717 5.07031C84.9615 5.33878 85.1064 5.66051 85.1064 6.03551C85.1064 6.41477 84.9615 6.74077 84.6717 7.01349C84.3862 7.28196 84.041 7.41619 83.6362 7.41619ZM91.647 18.6918C90.6371 18.6918 89.7678 18.4872 89.0391 18.0781C88.3146 17.6648 87.7564 17.081 87.3643 16.3267C86.9723 15.5682 86.7763 14.6712 86.7763 13.6357C86.7763 12.6257 86.9723 11.7393 87.3643 10.9766C87.7564 10.2138 88.3082 9.61932 89.0199 9.19318C89.7358 8.76705 90.5753 8.55398 91.5384 8.55398C92.1861 8.55398 92.7891 8.65838 93.3473 8.86719C93.9098 9.07173 94.3999 9.38068 94.8175 9.79403C95.2393 10.2074 95.5675 10.7273 95.8018 11.3537C96.0362 11.9759 96.1534 12.7045 96.1534 13.5398V14.2876H87.8629V12.6001H93.5902C93.5902 12.2081 93.505 11.8608 93.3345 11.5582C93.1641 11.2557 92.9276 11.0192 92.625 10.8487C92.3267 10.674 91.9794 10.5866 91.5831 10.5866C91.1697 10.5866 90.8033 10.6825 90.4837 10.8743C90.1683 11.0618 89.9212 11.3153 89.7422 11.6349C89.5632 11.9503 89.4716 12.3018 89.4673 12.6896V14.294C89.4673 14.7798 89.5568 15.1996 89.7358 15.5533C89.919 15.907 90.1768 16.1797 90.5092 16.3714C90.8416 16.5632 91.2358 16.6591 91.6918 16.6591C91.9943 16.6591 92.2713 16.6165 92.5227 16.5312C92.7741 16.446 92.9893 16.3182 93.1683 16.1477C93.3473 15.9773 93.4837 15.7685 93.5774 15.5213L96.0959 15.6875C95.968 16.2926 95.706 16.821 95.3097 17.2727C94.9176 17.7202 94.4105 18.0696 93.7884 18.321C93.1705 18.5682 92.4567 18.6918 91.647 18.6918ZM100.653 12.8239V18.5H97.9304V8.68182H100.526V10.4141H100.641C100.858 9.84304 101.222 9.39133 101.734 9.05895C102.245 8.7223 102.865 8.55398 103.594 8.55398C104.276 8.55398 104.87 8.70312 105.377 9.00142C105.884 9.29972 106.278 9.72585 106.56 10.2798C106.841 10.8295 106.982 11.4858 106.982 12.2486V18.5H104.259V12.7344C104.263 12.1335 104.109 11.6648 103.798 11.3281C103.487 10.9872 103.059 10.8168 102.513 10.8168C102.147 10.8168 101.823 10.8956 101.542 11.0533C101.265 11.2109 101.048 11.4411 100.89 11.7436C100.737 12.0419 100.658 12.402 100.653 12.8239ZM112.746 18.6598C112 18.6598 111.324 18.468 110.719 18.0845C110.118 17.6967 109.641 17.1278 109.287 16.3778C108.938 15.6236 108.763 14.6989 108.763 13.6037C108.763 12.4787 108.944 11.5433 109.307 10.7976C109.669 10.0476 110.15 9.48722 110.751 9.11648C111.356 8.74148 112.019 8.55398 112.739 8.55398C113.289 8.55398 113.747 8.64773 114.113 8.83523C114.484 9.01847 114.782 9.24858 115.008 9.52557C115.238 9.7983 115.413 10.0668 115.532 10.331H115.616V5.40909H118.332V18.5H115.648V16.9276H115.532C115.405 17.2003 115.224 17.4709 114.989 17.7393C114.759 18.0036 114.459 18.223 114.088 18.3977C113.721 18.5724 113.274 18.6598 112.746 18.6598ZM113.608 16.4929C114.047 16.4929 114.418 16.3736 114.721 16.1349C115.028 15.892 115.262 15.5533 115.424 15.1186C115.59 14.6839 115.673 14.1747 115.673 13.5909C115.673 13.0071 115.592 12.5 115.43 12.0696C115.268 11.6392 115.034 11.3068 114.727 11.0724C114.42 10.8381 114.047 10.7209 113.608 10.7209C113.161 10.7209 112.784 10.8423 112.477 11.0852C112.17 11.3281 111.938 11.6648 111.78 12.0952C111.623 12.5256 111.544 13.0241 111.544 13.5909C111.544 14.1619 111.623 14.6669 111.78 15.1058C111.942 15.5405 112.175 15.8814 112.477 16.1286C112.784 16.3714 113.161 16.4929 113.608 16.4929Z" fill="#121417"/>
<defs>
<clipPath id="clip0_64_508">
<rect width="16" height="16" fill="white" transform="translate(0 4)"/>
</clipPath>
</defs>
</svg>
