<svg width="120" height="24" viewBox="0 0 120 24" fill="none" xmlns="http://www.w3.org/2000/svg">
<g clip-path="url(#clip0_97_50)">
<path fill-rule="evenodd" clip-rule="evenodd" d="M14.6667 7.75757C14.6667 8.6703 13.2795 9.46523 11.23 9.8788C13.2795 10.2923 14.6667 11.0873 14.6667 12C14.6667 12.9127 13.2795 13.7077 11.23 14.1212C13.2795 14.5348 14.6667 15.3297 14.6667 16.2424C14.6667 17.5813 11.6819 18.6667 8 18.6667C4.3181 18.6667 1.33333 17.5813 1.33333 16.2424C1.33333 15.3297 2.72048 14.5348 4.77 14.1212C2.72048 13.7077 1.33333 12.9127 1.33333 12C1.33333 11.0873 2.72048 10.2923 4.77 9.8788C2.72048 9.46523 1.33333 8.6703 1.33333 7.75757C1.33333 6.4187 4.3181 5.33333 8 5.33333C11.6819 5.33333 14.6667 6.4187 14.6667 7.75757V7.75757Z" fill="#2869DA"/>
</g>
<path d="M25.1378 18.5V5.40909H30.3026C31.2955 5.40909 32.1413 5.59872 32.8402 5.97798C33.5391 6.35298 34.0717 6.875 34.4382 7.54403C34.8089 8.20881 34.9943 8.97585 34.9943 9.84517C34.9943 10.7145 34.8068 11.4815 34.4318 12.1463C34.0568 12.8111 33.5135 13.3288 32.8018 13.6996C32.0945 14.0703 31.2379 14.2557 30.2322 14.2557H26.9403V12.0376H29.7848C30.3175 12.0376 30.7564 11.946 31.1016 11.7628C31.451 11.5753 31.7109 11.3175 31.8814 10.9893C32.0561 10.657 32.1435 10.2756 32.1435 9.84517C32.1435 9.41051 32.0561 9.03125 31.8814 8.70739C31.7109 8.37926 31.451 8.12571 31.1016 7.94673C30.7521 7.76349 30.3089 7.67188 29.772 7.67188H27.9055V18.5H25.1378ZM41.4327 18.5H36.7921V5.40909H41.4711C42.7878 5.40909 43.9213 5.67116 44.8716 6.19531C45.8219 6.7152 46.5527 7.46307 47.0641 8.43892C47.5797 9.41477 47.8375 10.5824 47.8375 11.9418C47.8375 13.3054 47.5797 14.4773 47.0641 15.4574C46.5527 16.4375 45.8176 17.1896 44.8588 17.7138C43.9043 18.2379 42.7623 18.5 41.4327 18.5ZM39.5598 16.1286H41.3176C42.1358 16.1286 42.824 15.9837 43.3823 15.6939C43.9448 15.3999 44.3667 14.946 44.6479 14.3324C44.9334 13.7145 45.0762 12.9176 45.0762 11.9418C45.0762 10.9744 44.9334 10.1839 44.6479 9.57031C44.3667 8.95668 43.9469 8.50497 43.3887 8.2152C42.8304 7.92543 42.1422 7.78054 41.324 7.78054H39.5598V16.1286ZM49.8878 18.5V5.40909H58.5554V7.69105H52.6555V10.8104H57.9801V13.0923H52.6555V18.5H49.8878ZM64.5831 18.5V5.40909H69.8246C70.7876 5.40909 71.5909 5.55185 72.2344 5.83736C72.8778 6.12287 73.3615 6.51918 73.6854 7.02628C74.0092 7.52912 74.1712 8.10866 74.1712 8.76491C74.1712 9.27628 74.0689 9.72585 73.8643 10.1136C73.6598 10.4972 73.3786 10.8125 73.0206 11.0597C72.6669 11.3026 72.2621 11.4751 71.8061 11.5774V11.7053C72.3047 11.7266 72.7713 11.8672 73.206 12.1271C73.6449 12.3871 74.0007 12.7514 74.2734 13.2202C74.5462 13.6847 74.6825 14.2386 74.6825 14.8821C74.6825 15.5767 74.5099 16.1967 74.1648 16.7422C73.8239 17.2834 73.3189 17.7116 72.6499 18.027C71.9808 18.3423 71.1563 18.5 70.1761 18.5H64.5831ZM67.3509 16.2372H69.6072C70.3786 16.2372 70.9411 16.0902 71.2947 15.7962C71.6484 15.4979 71.8253 15.1016 71.8253 14.6072C71.8253 14.245 71.7379 13.9254 71.5632 13.6484C71.3885 13.3714 71.1392 13.1541 70.8153 12.9964C70.4957 12.8388 70.1143 12.7599 69.6712 12.7599H67.3509V16.2372ZM67.3509 10.8871H69.4027C69.782 10.8871 70.1186 10.821 70.4126 10.6889C70.7109 10.5526 70.9453 10.3608 71.1158 10.1136C71.2905 9.86648 71.3778 9.57031 71.3778 9.22514C71.3778 8.75213 71.2095 8.37074 70.8729 8.08097C70.5405 7.79119 70.0675 7.64631 69.4538 7.64631H67.3509V10.8871ZM82.7285 14.3196V8.68182H85.4515V18.5H82.8372V16.7166H82.7349C82.5133 17.2919 82.1447 17.7543 81.6291 18.1037C81.1177 18.4531 80.4934 18.6278 79.7562 18.6278C79.1 18.6278 78.5225 18.4787 78.024 18.1804C77.5254 17.8821 77.1355 17.4581 76.8542 16.9084C76.5772 16.3587 76.4366 15.7003 76.4324 14.9332V8.68182H79.1554V14.4474C79.1596 15.027 79.3152 15.4851 79.622 15.8217C79.9288 16.1584 80.34 16.3267 80.8556 16.3267C81.1838 16.3267 81.4906 16.2521 81.7761 16.103C82.0616 15.9496 82.2917 15.7237 82.4664 15.4254C82.6454 15.1271 82.7328 14.7585 82.7285 14.3196ZM91.2475 18.6598C90.5018 18.6598 89.8263 18.468 89.2212 18.0845C88.6204 17.6967 88.1431 17.1278 87.7894 16.3778C87.44 15.6236 87.2653 14.6989 87.2653 13.6037C87.2653 12.4787 87.4464 11.5433 87.8086 10.7976C88.1708 10.0476 88.6523 9.48722 89.2532 9.11648C89.8583 8.74148 90.521 8.55398 91.2411 8.55398C91.7908 8.55398 92.2489 8.64773 92.6154 8.83523C92.9862 9.01847 93.2844 9.24858 93.5103 9.52557C93.7404 9.7983 93.9151 10.0668 94.0344 10.331H94.1175V5.40909H96.8342V18.5H94.1495V16.9276H94.0344C93.9066 17.2003 93.7255 17.4709 93.4911 17.7393C93.261 18.0036 92.9606 18.223 92.5898 18.3977C92.2234 18.5724 91.7759 18.6598 91.2475 18.6598ZM92.1104 16.4929C92.5494 16.4929 92.9201 16.3736 93.2227 16.1349C93.5295 15.892 93.7638 15.5533 93.9258 15.1186C94.092 14.6839 94.1751 14.1747 94.1751 13.5909C94.1751 13.0071 94.0941 12.5 93.9322 12.0696C93.7702 11.6392 93.5359 11.3068 93.229 11.0724C92.9222 10.8381 92.5494 10.7209 92.1104 10.7209C91.663 10.7209 91.2859 10.8423 90.979 11.0852C90.6722 11.3281 90.44 11.6648 90.2823 12.0952C90.1246 12.5256 90.0458 13.0241 90.0458 13.5909C90.0458 14.1619 90.1246 14.6669 90.2823 15.1058C90.4442 15.5405 90.6765 15.8814 90.979 16.1286C91.2859 16.3714 91.663 16.4929 92.1104 16.4929ZM102.691 18.6598C101.945 18.6598 101.27 18.468 100.665 18.0845C100.064 17.6967 99.5865 17.1278 99.2328 16.3778C98.8833 15.6236 98.7086 14.6989 98.7086 13.6037C98.7086 12.4787 98.8897 11.5433 99.252 10.7976C99.6142 10.0476 100.096 9.48722 100.697 9.11648C101.302 8.74148 101.964 8.55398 102.684 8.55398C103.234 8.55398 103.692 8.64773 104.059 8.83523C104.43 9.01847 104.728 9.24858 104.954 9.52557C105.184 9.7983 105.358 10.0668 105.478 10.331H105.561V5.40909H108.278V18.5H105.593V16.9276H105.478C105.35 17.2003 105.169 17.4709 104.934 17.7393C104.704 18.0036 104.404 18.223 104.033 18.3977C103.667 18.5724 103.219 18.6598 102.691 18.6598ZM103.554 16.4929C103.993 16.4929 104.363 16.3736 104.666 16.1349C104.973 15.892 105.207 15.5533 105.369 15.1186C105.535 14.6839 105.618 14.1747 105.618 13.5909C105.618 13.0071 105.537 12.5 105.376 12.0696C105.214 11.6392 104.979 11.3068 104.672 11.0724C104.366 10.8381 103.993 10.7209 103.554 10.7209C103.106 10.7209 102.729 10.8423 102.422 11.0852C102.116 11.3281 101.883 11.6648 101.726 12.0952C101.568 12.5256 101.489 13.0241 101.489 13.5909C101.489 14.1619 101.568 14.6669 101.726 15.1058C101.888 15.5405 102.12 15.8814 102.422 16.1286C102.729 16.3714 103.106 16.4929 103.554 16.4929ZM112.197 22.1818C111.852 22.1818 111.528 22.1541 111.226 22.0987C110.928 22.0476 110.68 21.9815 110.484 21.9006L111.098 19.8679C111.418 19.9659 111.705 20.0192 111.961 20.0277C112.221 20.0362 112.445 19.9766 112.632 19.8487C112.824 19.7209 112.979 19.5036 113.099 19.1967L113.259 18.7812L109.737 8.68182H112.6L114.633 15.892H114.735L116.787 8.68182H119.67L115.854 19.5611C115.67 20.0895 115.421 20.5497 115.106 20.9418C114.795 21.3381 114.401 21.6428 113.923 21.8558C113.446 22.0732 112.871 22.1818 112.197 22.1818Z" fill="#121417"/>
<defs>
<clipPath id="clip0_97_50">
<rect width="16" height="16" fill="white" transform="translate(0 4)"/>
</clipPath>
</defs>
</svg>
