<svg width="124" height="28" viewBox="0 0 124 28" fill="none" xmlns="http://www.w3.org/2000/svg">
<g filter="url(#filter0_d_142_341)">
<path d="M6.09485 14.4054C5.96099 14.4256 5.8383 14.3559 5.8013 14.2367C5.4533 13.1776 5.26131 13.0518 4.04987 13.113C3.91008 13.1191 3.7889 13.0342 3.77123 12.9171C3.75331 12.7983 3.84269 12.685 3.97757 12.6463C5.14181 12.3226 5.26953 12.1736 5.32148 11.0558C5.32749 10.9317 5.42044 10.8295 5.55244 10.8096C5.68816 10.7891 5.80899 10.8591 5.8497 10.9778C6.19374 12.0358 6.38574 12.1616 7.59532 12.1006C7.73907 12.0956 7.8579 12.1775 7.87606 12.2979C7.89373 12.415 7.80807 12.5278 7.66948 12.567C6.50387 12.8943 6.37776 13.0414 6.32952 14.1587C6.32005 14.2849 6.22499 14.3858 6.09485 14.4054Z" fill="url(#paint0_radial_142_341)"/>
</g>
<g filter="url(#filter1_d_142_341)">
<circle cx="10.25" cy="18.75" r="0.75" transform="rotate(180 10.25 18.75)" fill="url(#paint1_radial_142_341)"/>
</g>
<g filter="url(#filter2_d_142_341)">
<path d="M16.5948 16.2855C16.4609 16.3057 16.3382 16.236 16.3012 16.1168C15.9532 15.0577 15.7612 14.9319 14.5498 14.9932C14.41 14.9993 14.2888 14.9144 14.2711 14.7972C14.2532 14.6784 14.3426 14.5651 14.4775 14.5265C15.6417 14.2027 15.7694 14.0537 15.8214 12.9359C15.8274 12.8119 15.9204 12.7096 16.0523 12.6897C16.1881 12.6693 16.3089 12.7392 16.3496 12.8579C16.6937 13.9159 16.8856 14.0417 18.0952 13.9807C18.239 13.9757 18.3578 14.0576 18.376 14.178C18.3936 14.2952 18.308 14.4079 18.1694 14.4472C17.0038 14.7744 16.8777 14.9216 16.8294 16.0388C16.82 16.165 16.7249 16.2659 16.5948 16.2855Z" fill="url(#paint2_radial_142_341)"/>
</g>
<path d="M10.1923 12.6537H17.8077V11.1537H10.1923V12.6537ZM10.1923 15.5385H17.8077V14.0385H10.1923V15.5385ZM10.1923 18.423H14.8077V16.923H10.1923V18.423ZM8.30775 21.5C7.80258 21.5 7.375 21.325 7.025 20.975C6.675 20.625 6.5 20.1974 6.5 19.6922V4.30775C6.5 3.80258 6.675 3.375 7.025 3.025C7.375 2.675 7.80258 2.5 8.30775 2.5H16.25L21.5 7.75V19.6922C21.5 20.1974 21.325 20.625 20.975 20.975C20.625 21.325 20.1974 21.5 19.6923 21.5H8.30775ZM15.5 8.5V4H8.30775C8.23075 4 8.16025 4.03208 8.09625 4.09625C8.03208 4.16025 8 4.23075 8 4.30775V19.6922C8 19.7692 8.03208 19.8397 8.09625 19.9037C8.16025 19.9679 8.23075 20 8.30775 20H19.6923C19.7693 20 19.8398 19.9679 19.9038 19.9037C19.9679 19.8397 20 19.7692 20 19.6922V8.5H15.5Z" fill="#2869DA"/>
<g filter="url(#filter3_d_142_341)">
<path d="M19.0644 22.8655C18.8755 22.894 18.7047 22.8111 18.6558 22.6648C18.1942 21.3654 17.9273 21.215 16.221 21.3228C16.0241 21.3341 15.8558 21.2324 15.834 21.0881C15.812 20.9418 15.9408 20.7994 16.1316 20.7481C17.7785 20.3173 17.9621 20.1297 18.0648 18.7472C18.0766 18.5938 18.2101 18.465 18.3964 18.4369C18.5879 18.408 18.7561 18.4913 18.8102 18.6368C19.2663 19.935 19.5332 20.0854 21.2369 19.978C21.4393 19.9679 21.6044 20.066 21.6267 20.2143C21.6485 20.3586 21.525 20.5002 21.3289 20.5523C19.68 20.9875 19.4986 21.1727 19.4012 22.5544C19.3845 22.7106 19.2481 22.8378 19.0644 22.8655Z" fill="url(#paint3_radial_142_341)"/>
</g>
<g filter="url(#filter4_d_142_341)">
<circle cx="10.25" cy="8.25" r="0.75" transform="rotate(180 10.25 8.25)" fill="url(#paint4_radial_142_341)"/>
</g>
<g filter="url(#filter5_d_142_341)">
<circle cx="16.25" cy="9.75" r="0.75" transform="rotate(180 16.25 9.75)" fill="url(#paint5_radial_142_341)"/>
</g>
<path d="M36.552 5.9C37.176 5.9 37.758 6.08 38.298 6.44C38.85 6.8 39.294 7.286 39.63 7.898C39.966 8.51 40.134 9.194 40.134 9.95C40.134 10.694 39.966 11.372 39.63 11.984C39.294 12.596 38.85 13.088 38.298 13.46C37.758 13.82 37.176 14 36.552 14H33.24L33.42 13.676V17.402C33.42 17.714 33.324 17.978 33.132 18.194C32.94 18.398 32.688 18.5 32.376 18.5C32.076 18.5 31.83 18.398 31.638 18.194C31.446 17.978 31.35 17.714 31.35 17.402V6.998C31.35 6.686 31.452 6.428 31.656 6.224C31.872 6.008 32.136 5.9 32.448 5.9H36.552ZM36.552 11.948C36.78 11.948 37.002 11.852 37.218 11.66C37.434 11.468 37.614 11.222 37.758 10.922C37.902 10.61 37.974 10.286 37.974 9.95C37.974 9.602 37.902 9.278 37.758 8.978C37.614 8.678 37.434 8.438 37.218 8.258C37.002 8.066 36.78 7.97 36.552 7.97H33.204L33.42 7.646V12.236L33.222 11.948H36.552ZM47.5957 5.9C48.4597 5.9 49.2277 6.062 49.8997 6.386C50.5717 6.71 51.1357 7.166 51.5917 7.754C52.0597 8.33 52.4077 9.002 52.6357 9.77C52.8757 10.526 52.9957 11.336 52.9957 12.2C52.9957 13.364 52.7857 14.426 52.3657 15.386C51.9457 16.334 51.3337 17.09 50.5297 17.654C49.7377 18.218 48.7597 18.5 47.5957 18.5H43.2937C42.9817 18.5 42.7177 18.398 42.5017 18.194C42.2977 17.978 42.1957 17.714 42.1957 17.402V6.998C42.1957 6.686 42.2977 6.428 42.5017 6.224C42.7177 6.008 42.9817 5.9 43.2937 5.9H47.5957ZM47.4157 16.43C48.1717 16.43 48.7897 16.238 49.2697 15.854C49.7497 15.458 50.0977 14.942 50.3137 14.306C50.5417 13.658 50.6557 12.956 50.6557 12.2C50.6557 11.636 50.5897 11.102 50.4577 10.598C50.3377 10.082 50.1457 9.632 49.8817 9.248C49.6177 8.852 49.2817 8.54 48.8737 8.312C48.4657 8.084 47.9797 7.97 47.4157 7.97H44.2657L44.4457 7.808V16.628L44.3377 16.43H47.4157ZM56.1969 18.5C55.8609 18.5 55.5849 18.398 55.3689 18.194C55.1649 17.978 55.0629 17.714 55.0629 17.402V6.998C55.0629 6.686 55.1649 6.428 55.3689 6.224C55.5849 6.008 55.8489 5.9 56.1609 5.9H62.0109C62.3229 5.9 62.5809 6.002 62.7849 6.206C63.0009 6.398 63.1089 6.65 63.1089 6.962C63.1089 7.226 63.0009 7.46 62.7849 7.664C62.5809 7.868 62.3229 7.97 62.0109 7.97H57.1509L57.3129 7.754V11.372L57.1869 11.138H61.2009C61.5129 11.138 61.7709 11.24 61.9749 11.444C62.1909 11.636 62.2989 11.888 62.2989 12.2C62.2989 12.464 62.1909 12.698 61.9749 12.902C61.7709 13.106 61.5129 13.208 61.2009 13.208H57.1509L57.3129 13.046V17.402C57.3129 17.714 57.1989 17.978 56.9709 18.194C56.7549 18.398 56.4969 18.5 56.1969 18.5Z" fill="#121417"/>
<path d="M71.3492 18.5C71.0132 18.5 70.7372 18.398 70.5212 18.194C70.3172 17.978 70.2152 17.714 70.2152 17.402V6.998C70.2152 6.686 70.3172 6.428 70.5212 6.224C70.7372 6.008 71.0012 5.9 71.3132 5.9H77.1632C77.4752 5.9 77.7332 6.002 77.9372 6.206C78.1532 6.398 78.2612 6.65 78.2612 6.962C78.2612 7.226 78.1532 7.46 77.9372 7.664C77.7332 7.868 77.4752 7.97 77.1632 7.97H72.3032L72.4652 7.754V11.372L72.3392 11.138H76.3532C76.6652 11.138 76.9232 11.24 77.1272 11.444C77.3432 11.636 77.4512 11.888 77.4512 12.2C77.4512 12.464 77.3432 12.698 77.1272 12.902C76.9232 13.106 76.6652 13.208 76.3532 13.208H72.3032L72.4652 13.046V17.402C72.4652 17.714 72.3512 17.978 72.1232 18.194C71.9072 18.398 71.6492 18.5 71.3492 18.5ZM81.0645 18.5C80.7525 18.5 80.4945 18.398 80.2905 18.194C80.0865 17.978 79.9845 17.714 79.9845 17.402V9.968C79.9845 9.656 80.0865 9.398 80.2905 9.194C80.4945 8.978 80.7525 8.87 81.0645 8.87C81.3765 8.87 81.6345 8.978 81.8385 9.194C82.0425 9.398 82.1445 9.656 82.1445 9.968V11.66L82.0185 10.454C82.1505 10.166 82.3185 9.914 82.5225 9.698C82.7385 9.47 82.9785 9.284 83.2425 9.14C83.5065 8.984 83.7885 8.87 84.0885 8.798C84.3885 8.726 84.6885 8.69 84.9885 8.69C85.3485 8.69 85.6485 8.792 85.8885 8.996C86.1405 9.2 86.2665 9.44 86.2665 9.716C86.2665 10.112 86.1645 10.4 85.9605 10.58C85.7565 10.748 85.5345 10.832 85.2945 10.832C85.0665 10.832 84.8565 10.79 84.6645 10.706C84.4845 10.622 84.2745 10.58 84.0345 10.58C83.8185 10.58 83.5965 10.634 83.3685 10.742C83.1525 10.838 82.9485 10.994 82.7565 11.21C82.5765 11.426 82.4265 11.696 82.3065 12.02C82.1985 12.332 82.1445 12.704 82.1445 13.136V17.402C82.1445 17.714 82.0425 17.978 81.8385 18.194C81.6345 18.398 81.3765 18.5 81.0645 18.5ZM89.8231 17.402C89.8231 17.714 89.7211 17.978 89.5171 18.194C89.3131 18.398 89.0551 18.5 88.7431 18.5C88.4311 18.5 88.1731 18.398 87.9691 18.194C87.7651 17.978 87.6631 17.714 87.6631 17.402V9.968C87.6631 9.656 87.7651 9.398 87.9691 9.194C88.1731 8.978 88.4311 8.87 88.7431 8.87C89.0551 8.87 89.3131 8.978 89.5171 9.194C89.7211 9.398 89.8231 9.656 89.8231 9.968V17.402ZM88.7251 7.7C88.3171 7.7 88.0291 7.634 87.8611 7.502C87.6931 7.37 87.6091 7.136 87.6091 6.8V6.458C87.6091 6.11 87.6991 5.876 87.8791 5.756C88.0711 5.624 88.3591 5.558 88.7431 5.558C89.1631 5.558 89.4571 5.624 89.6251 5.756C89.7931 5.888 89.8771 6.122 89.8771 6.458V6.8C89.8771 7.148 89.7871 7.388 89.6071 7.52C89.4271 7.64 89.1331 7.7 88.7251 7.7ZM96.579 18.68C95.559 18.68 94.671 18.47 93.915 18.05C93.171 17.618 92.595 17.036 92.187 16.304C91.791 15.572 91.593 14.744 91.593 13.82C91.593 12.74 91.809 11.822 92.241 11.066C92.685 10.298 93.261 9.71 93.969 9.302C94.677 8.894 95.427 8.69 96.219 8.69C96.831 8.69 97.407 8.816 97.947 9.068C98.499 9.32 98.985 9.668 99.405 10.112C99.825 10.544 100.155 11.048 100.395 11.624C100.647 12.2 100.773 12.812 100.773 13.46C100.761 13.748 100.647 13.982 100.431 14.162C100.215 14.342 99.963 14.432 99.675 14.432H92.799L92.259 12.632H98.865L98.469 12.992V12.506C98.445 12.158 98.319 11.846 98.091 11.57C97.875 11.294 97.599 11.078 97.263 10.922C96.939 10.754 96.591 10.67 96.219 10.67C95.859 10.67 95.523 10.718 95.211 10.814C94.899 10.91 94.629 11.072 94.401 11.3C94.173 11.528 93.993 11.834 93.861 12.218C93.729 12.602 93.663 13.088 93.663 13.676C93.663 14.324 93.795 14.876 94.059 15.332C94.335 15.776 94.683 16.118 95.103 16.358C95.535 16.586 95.991 16.7 96.471 16.7C96.915 16.7 97.269 16.664 97.533 16.592C97.797 16.52 98.007 16.436 98.163 16.34C98.331 16.232 98.481 16.142 98.613 16.07C98.829 15.962 99.033 15.908 99.225 15.908C99.489 15.908 99.705 15.998 99.873 16.178C100.053 16.358 100.143 16.568 100.143 16.808C100.143 17.132 99.975 17.426 99.639 17.69C99.327 17.954 98.889 18.188 98.325 18.392C97.761 18.584 97.179 18.68 96.579 18.68ZM107.808 8.69C108.696 8.69 109.368 8.876 109.824 9.248C110.292 9.62 110.61 10.118 110.778 10.742C110.958 11.354 111.048 12.038 111.048 12.794V17.402C111.048 17.714 110.946 17.978 110.742 18.194C110.538 18.398 110.28 18.5 109.968 18.5C109.656 18.5 109.398 18.398 109.194 18.194C108.99 17.978 108.888 17.714 108.888 17.402V12.794C108.888 12.398 108.834 12.044 108.726 11.732C108.63 11.408 108.45 11.15 108.186 10.958C107.922 10.766 107.544 10.67 107.052 10.67C106.572 10.67 106.164 10.766 105.828 10.958C105.504 11.15 105.252 11.408 105.072 11.732C104.904 12.044 104.82 12.398 104.82 12.794V17.402C104.82 17.714 104.718 17.978 104.514 18.194C104.31 18.398 104.052 18.5 103.74 18.5C103.428 18.5 103.17 18.398 102.966 18.194C102.762 17.978 102.66 17.714 102.66 17.402V9.968C102.66 9.656 102.762 9.398 102.966 9.194C103.17 8.978 103.428 8.87 103.74 8.87C104.052 8.87 104.31 8.978 104.514 9.194C104.718 9.398 104.82 9.656 104.82 9.968V10.742L104.55 10.688C104.658 10.484 104.814 10.268 105.018 10.04C105.222 9.8 105.462 9.578 105.738 9.374C106.014 9.17 106.326 9.008 106.674 8.888C107.022 8.756 107.4 8.69 107.808 8.69ZM121.267 5.18C121.579 5.18 121.837 5.282 122.041 5.486C122.245 5.69 122.347 5.954 122.347 6.278V17.402C122.347 17.714 122.245 17.978 122.041 18.194C121.837 18.398 121.579 18.5 121.267 18.5C120.955 18.5 120.697 18.398 120.493 18.194C120.289 17.978 120.187 17.714 120.187 17.402V16.52L120.583 16.682C120.583 16.838 120.499 17.03 120.331 17.258C120.163 17.474 119.935 17.69 119.647 17.906C119.359 18.122 119.017 18.308 118.621 18.464C118.237 18.608 117.817 18.68 117.361 18.68C116.533 18.68 115.783 18.47 115.111 18.05C114.439 17.618 113.905 17.03 113.509 16.286C113.125 15.53 112.933 14.666 112.933 13.694C112.933 12.71 113.125 11.846 113.509 11.102C113.905 10.346 114.433 9.758 115.093 9.338C115.753 8.906 116.485 8.69 117.289 8.69C117.805 8.69 118.279 8.768 118.711 8.924C119.143 9.08 119.515 9.278 119.827 9.518C120.151 9.758 120.397 10.004 120.565 10.256C120.745 10.496 120.835 10.7 120.835 10.868L120.187 11.102V6.278C120.187 5.966 120.289 5.708 120.493 5.504C120.697 5.288 120.955 5.18 121.267 5.18ZM117.631 16.7C118.159 16.7 118.621 16.568 119.017 16.304C119.413 16.04 119.719 15.68 119.935 15.224C120.163 14.768 120.277 14.258 120.277 13.694C120.277 13.118 120.163 12.602 119.935 12.146C119.719 11.69 119.413 11.33 119.017 11.066C118.621 10.802 118.159 10.67 117.631 10.67C117.115 10.67 116.659 10.802 116.263 11.066C115.867 11.33 115.555 11.69 115.327 12.146C115.111 12.602 115.003 13.118 115.003 13.694C115.003 14.258 115.111 14.768 115.327 15.224C115.555 15.68 115.867 16.04 116.263 16.304C116.659 16.568 117.115 16.7 117.631 16.7Z" fill="#2869DA"/>
<defs>
<filter id="filter0_d_142_341" x="0.305315" y="8.24417" width="11.0367" height="10.53" filterUnits="userSpaceOnUse" color-interpolation-filters="sRGB">
<feFlood flood-opacity="0" result="BackgroundImageFix"/>
<feColorMatrix in="SourceAlpha" type="matrix" values="0 0 0 0 0 0 0 0 0 0 0 0 0 0 0 0 0 0 127 0" result="hardAlpha"/>
<feOffset dy="0.901774"/>
<feGaussianBlur stdDeviation="1.73182"/>
<feComposite in2="hardAlpha" operator="out"/>
<feColorMatrix type="matrix" values="0 0 0 0 0.220722 0 0 0 0 0.210451 0 0 0 0 0.241667 0 0 0 0.6 0"/>
<feBlend mode="normal" in2="BackgroundImageFix" result="effect1_dropShadow_142_341"/>
<feBlend mode="normal" in="SourceGraphic" in2="effect1_dropShadow_142_341" result="shape"/>
</filter>
<filter id="filter1_d_142_341" x="8" y="16.5" width="4.5" height="4.5" filterUnits="userSpaceOnUse" color-interpolation-filters="sRGB">
<feFlood flood-opacity="0" result="BackgroundImageFix"/>
<feColorMatrix in="SourceAlpha" type="matrix" values="0 0 0 0 0 0 0 0 0 0 0 0 0 0 0 0 0 0 127 0" result="hardAlpha"/>
<feOffset/>
<feGaussianBlur stdDeviation="0.75"/>
<feComposite in2="hardAlpha" operator="out"/>
<feColorMatrix type="matrix" values="0 0 0 0 0.831373 0 0 0 0 0.545098 0 0 0 0 1 0 0 0 0.8 0"/>
<feBlend mode="normal" in2="BackgroundImageFix" result="effect1_dropShadow_142_341"/>
<feBlend mode="normal" in="SourceGraphic" in2="effect1_dropShadow_142_341" result="shape"/>
</filter>
<filter id="filter2_d_142_341" x="10.8052" y="10.1243" width="11.0367" height="10.53" filterUnits="userSpaceOnUse" color-interpolation-filters="sRGB">
<feFlood flood-opacity="0" result="BackgroundImageFix"/>
<feColorMatrix in="SourceAlpha" type="matrix" values="0 0 0 0 0 0 0 0 0 0 0 0 0 0 0 0 0 0 127 0" result="hardAlpha"/>
<feOffset dy="0.901774"/>
<feGaussianBlur stdDeviation="1.73182"/>
<feComposite in2="hardAlpha" operator="out"/>
<feColorMatrix type="matrix" values="0 0 0 0 0.220722 0 0 0 0 0.210451 0 0 0 0 0.241667 0 0 0 0.6 0"/>
<feBlend mode="normal" in2="BackgroundImageFix" result="effect1_dropShadow_142_341"/>
<feBlend mode="normal" in="SourceGraphic" in2="effect1_dropShadow_142_341" result="shape"/>
</filter>
<filter id="filter3_d_142_341" x="12.368" y="15.8693" width="12.7249" height="11.3672" filterUnits="userSpaceOnUse" color-interpolation-filters="sRGB">
<feFlood flood-opacity="0" result="BackgroundImageFix"/>
<feColorMatrix in="SourceAlpha" type="matrix" values="0 0 0 0 0 0 0 0 0 0 0 0 0 0 0 0 0 0 127 0" result="hardAlpha"/>
<feOffset dy="0.901774"/>
<feGaussianBlur stdDeviation="1.73182"/>
<feComposite in2="hardAlpha" operator="out"/>
<feColorMatrix type="matrix" values="0 0 0 0 0.220722 0 0 0 0 0.210451 0 0 0 0 0.241667 0 0 0 0.6 0"/>
<feBlend mode="normal" in2="BackgroundImageFix" result="effect1_dropShadow_142_341"/>
<feBlend mode="normal" in="SourceGraphic" in2="effect1_dropShadow_142_341" result="shape"/>
</filter>
<filter id="filter4_d_142_341" x="8" y="6" width="4.5" height="4.5" filterUnits="userSpaceOnUse" color-interpolation-filters="sRGB">
<feFlood flood-opacity="0" result="BackgroundImageFix"/>
<feColorMatrix in="SourceAlpha" type="matrix" values="0 0 0 0 0 0 0 0 0 0 0 0 0 0 0 0 0 0 127 0" result="hardAlpha"/>
<feOffset/>
<feGaussianBlur stdDeviation="0.75"/>
<feComposite in2="hardAlpha" operator="out"/>
<feColorMatrix type="matrix" values="0 0 0 0 0.831373 0 0 0 0 0.545098 0 0 0 0 1 0 0 0 0.8 0"/>
<feBlend mode="normal" in2="BackgroundImageFix" result="effect1_dropShadow_142_341"/>
<feBlend mode="normal" in="SourceGraphic" in2="effect1_dropShadow_142_341" result="shape"/>
</filter>
<filter id="filter5_d_142_341" x="14" y="7.5" width="4.5" height="4.5" filterUnits="userSpaceOnUse" color-interpolation-filters="sRGB">
<feFlood flood-opacity="0" result="BackgroundImageFix"/>
<feColorMatrix in="SourceAlpha" type="matrix" values="0 0 0 0 0 0 0 0 0 0 0 0 0 0 0 0 0 0 127 0" result="hardAlpha"/>
<feOffset/>
<feGaussianBlur stdDeviation="0.75"/>
<feComposite in2="hardAlpha" operator="out"/>
<feColorMatrix type="matrix" values="0 0 0 0 0.831373 0 0 0 0 0.545098 0 0 0 0 1 0 0 0 0.8 0"/>
<feBlend mode="normal" in2="BackgroundImageFix" result="effect1_dropShadow_142_341"/>
<feBlend mode="normal" in="SourceGraphic" in2="effect1_dropShadow_142_341" result="shape"/>
</filter>
<radialGradient id="paint0_radial_142_341" cx="0" cy="0" r="1" gradientUnits="userSpaceOnUse" gradientTransform="translate(7.3876 13.5974) rotate(-164.279) scale(2.94575 2.78104)">
<stop stop-color="#F0D9FF"/>
<stop offset="0.4" stop-color="#C084FC"/>
<stop offset="1" stop-color="#9333EA"/>
</radialGradient>
<radialGradient id="paint1_radial_142_341" cx="0" cy="0" r="1" gradientUnits="userSpaceOnUse" gradientTransform="translate(9.74457 19.25) rotate(-27.2669) scale(1.09138 1.11879)">
<stop stop-color="#F0D9FF"/>
<stop offset="0.4" stop-color="#C084FC"/>
<stop offset="1" stop-color="#9333EA"/>
</radialGradient>
<radialGradient id="paint2_radial_142_341" cx="0" cy="0" r="1" gradientUnits="userSpaceOnUse" gradientTransform="translate(17.8875 15.4776) rotate(-164.279) scale(2.94575 2.78104)">
<stop stop-color="#F0D9FF"/>
<stop offset="0.4" stop-color="#C084FC"/>
<stop offset="1" stop-color="#9333EA"/>
</radialGradient>
<radialGradient id="paint3_radial_142_341" cx="0" cy="0" r="1" gradientUnits="userSpaceOnUse" gradientTransform="translate(20.905 21.8329) rotate(-167.072) scale(4.07226 3.4964)">
<stop stop-color="#F0D9FF"/>
<stop offset="0.4" stop-color="#C084FC"/>
<stop offset="1" stop-color="#9333EA"/>
</radialGradient>
<radialGradient id="paint4_radial_142_341" cx="0" cy="0" r="1" gradientUnits="userSpaceOnUse" gradientTransform="translate(9.74457 8.75) rotate(-27.2669) scale(1.09138 1.11879)">
<stop stop-color="#F0D9FF"/>
<stop offset="0.4" stop-color="#C084FC"/>
<stop offset="1" stop-color="#9333EA"/>
</radialGradient>
<radialGradient id="paint5_radial_142_341" cx="0" cy="0" r="1" gradientUnits="userSpaceOnUse" gradientTransform="translate(15.7446 10.25) rotate(-27.2669) scale(1.09138 1.11879)">
<stop stop-color="#F0D9FF"/>
<stop offset="0.4" stop-color="#C084FC"/>
<stop offset="1" stop-color="#9333EA"/>
</radialGradient>
</defs>
</svg>
