<svg width="122" height="24" viewBox="0 0 122 24" fill="none" xmlns="http://www.w3.org/2000/svg">
<mask id="path-1-inside-1_142_341" fill="white">
<path d="M16.5 4.45605C16.5001 5.04066 16.974 5.51452 17.5586 5.51465H19.9412C20.5259 5.51465 21 5.9887 21 6.57347V22.1914C20.9999 22.776 20.526 23.2499 19.9414 23.25H4.05859C3.474 23.2499 3.00012 22.776 3 22.1914V1.80859C3.00012 1.224 3.474 0.750124 4.05859 0.75H15.4412C16.0259 0.75 16.5 1.22405 16.5 1.80882V4.45605Z"/>
</mask>
<path d="M16.5 4.45605C16.5001 5.04066 16.974 5.51452 17.5586 5.51465H19.9412C20.5259 5.51465 21 5.9887 21 6.57347V22.1914C20.9999 22.776 20.526 23.2499 19.9414 23.25H4.05859C3.474 23.2499 3.00012 22.776 3 22.1914V1.80859C3.00012 1.224 3.474 0.750124 4.05859 0.75H15.4412C16.0259 0.75 16.5 1.22405 16.5 1.80882V4.45605Z" fill="url(#paint0_linear_142_341)"/>
<path d="M16.5 4.45605L16.2353 4.45605L16.2353 4.4561L16.5 4.45605ZM17.5586 5.51465L17.5585 5.77935H17.5586V5.51465ZM21 22.1914L21.2647 22.1915V22.1914H21ZM19.9414 23.25L19.9414 23.5147L19.9415 23.5147L19.9414 23.25ZM4.05859 23.25L4.05854 23.5147H4.05859V23.25ZM3 22.1914L2.73529 22.1914L2.73529 22.1915L3 22.1914ZM3 1.80859L2.73529 1.80854V1.80859H3ZM4.05859 0.75L4.05859 0.485294L4.05854 0.485294L4.05859 0.75ZM16.5 4.45605L16.2353 4.4561C16.2354 5.18687 16.8278 5.7792 17.5585 5.77935L17.5586 5.51465L17.5587 5.24994C17.1202 5.24985 16.7648 4.89445 16.7647 4.45601L16.5 4.45605ZM17.5586 5.51465V5.77935H19.9412V5.51465V5.24994H17.5586V5.51465ZM21 6.57347H20.7353V22.1914H21H21.2647V6.57347H21ZM21 22.1914L20.7353 22.1914C20.7352 22.6298 20.3798 22.9852 19.9414 22.9853L19.9414 23.25L19.9415 23.5147C20.6722 23.5146 21.2646 22.9222 21.2647 22.1915L21 22.1914ZM19.9414 23.25V22.9853H4.05859V23.25V23.5147H19.9414V23.25ZM4.05859 23.25L4.05865 22.9853C3.62021 22.9852 3.2648 22.6298 3.26471 22.1914L3 22.1914L2.73529 22.1915C2.73545 22.9222 3.3278 23.5146 4.05854 23.5147L4.05859 23.25ZM3 22.1914H3.26471V1.80859H3H2.73529V22.1914H3ZM3 1.80859L3.26471 1.80865C3.2648 1.37021 3.62021 1.0148 4.05865 1.01471L4.05859 0.75L4.05854 0.485294C3.3278 0.485449 2.73545 1.0778 2.73529 1.80854L3 1.80859ZM4.05859 0.75V1.01471H15.4412V0.75V0.485294H4.05859V0.75ZM16.5 1.80882H16.2353V4.45605H16.5H16.7647V1.80882H16.5ZM15.4412 0.75V1.01471C15.8798 1.01471 16.2353 1.37024 16.2353 1.80882H16.5H16.7647C16.7647 1.07786 16.1721 0.485294 15.4412 0.485294V0.75ZM19.9412 5.51465V5.77935C20.3798 5.77935 20.7353 6.13489 20.7353 6.57347H21H21.2647C21.2647 5.84251 20.6721 5.24994 19.9412 5.24994V5.51465Z" fill="#2869DA" mask="url(#path-1-inside-1_142_341)"/>
<path d="M15.8382 5.9117L15.9706 0.882288L20.7353 5.9117L15.8382 5.9117Z" fill="#2869DA"/>
<g clip-path="url(#clip0_142_341)">
<path d="M3 1.01477H10.3183C10.6422 1.01477 10.9047 1.27734 10.9047 1.60125V4.77772C10.9047 5.10162 10.6422 5.36419 10.3183 5.36419H3V1.01477Z" fill="black" fill-opacity="0.2"/>
<path d="M5.1336 1.84205C5.22509 1.84205 5.31042 1.86845 5.3896 1.92123C5.47053 1.97401 5.53563 2.04527 5.58489 2.135C5.63416 2.22473 5.65879 2.32502 5.65879 2.43586C5.65879 2.54495 5.63416 2.64435 5.58489 2.73408C5.53563 2.82381 5.47053 2.89595 5.3896 2.95049C5.31042 3.00328 5.22509 3.02967 5.1336 3.02967H4.648L4.67439 2.98216V3.52847C4.67439 3.57421 4.66031 3.61292 4.63216 3.64459C4.60401 3.6745 4.56706 3.68945 4.52132 3.68945C4.47733 3.68945 4.44126 3.6745 4.41311 3.64459C4.38496 3.61292 4.37089 3.57421 4.37089 3.52847V2.00304C4.37089 1.9573 4.38584 1.91947 4.41575 1.88956C4.44742 1.85789 4.48613 1.84205 4.53187 1.84205H5.1336ZM5.1336 2.72881C5.16703 2.72881 5.19958 2.71473 5.23125 2.68658C5.26292 2.65843 5.28931 2.62236 5.31042 2.57837C5.33153 2.53263 5.34209 2.48512 5.34209 2.43586C5.34209 2.38484 5.33153 2.33733 5.31042 2.29335C5.28931 2.24936 5.26292 2.21417 5.23125 2.18778C5.19958 2.15963 5.16703 2.14556 5.1336 2.14556H4.64272L4.67439 2.09805V2.77103L4.64536 2.72881H5.1336ZM6.96395 1.84205C7.09063 1.84205 7.20323 1.86581 7.30176 1.91331C7.40028 1.96082 7.48298 2.02767 7.54984 2.11389C7.61845 2.19834 7.66948 2.29687 7.70291 2.40947C7.73809 2.52031 7.75569 2.63907 7.75569 2.76575C7.75569 2.93642 7.7249 3.09213 7.66332 3.23288C7.60174 3.37188 7.51201 3.48272 7.39413 3.56541C7.278 3.64811 7.13461 3.68945 6.96395 3.68945H6.33319C6.28745 3.68945 6.24874 3.6745 6.21707 3.64459C6.18716 3.61292 6.1722 3.57421 6.1722 3.52847V2.00304C6.1722 1.9573 6.18716 1.91947 6.21707 1.88956C6.24874 1.85789 6.28745 1.84205 6.33319 1.84205H6.96395ZM6.93755 3.38595C7.0484 3.38595 7.13901 3.3578 7.20939 3.3015C7.27976 3.24344 7.33079 3.16778 7.36246 3.07453C7.39589 2.97952 7.4126 2.8766 7.4126 2.76575C7.4126 2.68306 7.40292 2.60477 7.38357 2.53087C7.36598 2.45521 7.33782 2.38924 7.29912 2.33293C7.26041 2.27487 7.21115 2.22913 7.15133 2.1957C7.0915 2.16227 7.02025 2.14556 6.93755 2.14556H6.47571L6.5021 2.1218V3.41498L6.48626 3.38595H6.93755ZM8.43618 3.68945C8.38691 3.68945 8.34644 3.6745 8.31477 3.64459C8.28486 3.61292 8.26991 3.57421 8.26991 3.52847V2.00304C8.26991 1.9573 8.28486 1.91947 8.31477 1.88956C8.34644 1.85789 8.38515 1.84205 8.4309 1.84205H9.28862C9.33436 1.84205 9.37219 1.85701 9.4021 1.88692C9.43377 1.91507 9.44961 1.95202 9.44961 1.99776C9.44961 2.03647 9.43377 2.07078 9.4021 2.10069C9.37219 2.1306 9.33436 2.14556 9.28862 2.14556H8.57605L8.5998 2.11389V2.64435L8.58133 2.61004H9.16986C9.2156 2.61004 9.25343 2.625 9.28334 2.65491C9.31501 2.68306 9.33084 2.72001 9.33084 2.76575C9.33084 2.80446 9.31501 2.83877 9.28334 2.86868C9.25343 2.89859 9.2156 2.91355 9.16986 2.91355H8.57605L8.5998 2.88979V3.52847C8.5998 3.57421 8.58309 3.61292 8.54966 3.64459C8.51799 3.6745 8.48016 3.68945 8.43618 3.68945Z" fill="white"/>
</g>
<path d="M34.552 5.9C35.176 5.9 35.758 6.08 36.298 6.44C36.85 6.8 37.294 7.286 37.63 7.898C37.966 8.51 38.134 9.194 38.134 9.95C38.134 10.694 37.966 11.372 37.63 11.984C37.294 12.596 36.85 13.088 36.298 13.46C35.758 13.82 35.176 14 34.552 14H31.24L31.42 13.676V17.402C31.42 17.714 31.324 17.978 31.132 18.194C30.94 18.398 30.688 18.5 30.376 18.5C30.076 18.5 29.83 18.398 29.638 18.194C29.446 17.978 29.35 17.714 29.35 17.402V6.998C29.35 6.686 29.452 6.428 29.656 6.224C29.872 6.008 30.136 5.9 30.448 5.9H34.552ZM34.552 11.948C34.78 11.948 35.002 11.852 35.218 11.66C35.434 11.468 35.614 11.222 35.758 10.922C35.902 10.61 35.974 10.286 35.974 9.95C35.974 9.602 35.902 9.278 35.758 8.978C35.614 8.678 35.434 8.438 35.218 8.258C35.002 8.066 34.78 7.97 34.552 7.97H31.204L31.42 7.646V12.236L31.222 11.948H34.552ZM45.5957 5.9C46.4597 5.9 47.2277 6.062 47.8997 6.386C48.5717 6.71 49.1357 7.166 49.5917 7.754C50.0597 8.33 50.4077 9.002 50.6357 9.77C50.8757 10.526 50.9957 11.336 50.9957 12.2C50.9957 13.364 50.7857 14.426 50.3657 15.386C49.9457 16.334 49.3337 17.09 48.5297 17.654C47.7377 18.218 46.7597 18.5 45.5957 18.5H41.2937C40.9817 18.5 40.7177 18.398 40.5017 18.194C40.2977 17.978 40.1957 17.714 40.1957 17.402V6.998C40.1957 6.686 40.2977 6.428 40.5017 6.224C40.7177 6.008 40.9817 5.9 41.2937 5.9H45.5957ZM45.4157 16.43C46.1717 16.43 46.7897 16.238 47.2697 15.854C47.7497 15.458 48.0977 14.942 48.3137 14.306C48.5417 13.658 48.6557 12.956 48.6557 12.2C48.6557 11.636 48.5897 11.102 48.4577 10.598C48.3377 10.082 48.1457 9.632 47.8817 9.248C47.6177 8.852 47.2817 8.54 46.8737 8.312C46.4657 8.084 45.9797 7.97 45.4157 7.97H42.2657L42.4457 7.808V16.628L42.3377 16.43H45.4157ZM54.1969 18.5C53.8609 18.5 53.5849 18.398 53.3689 18.194C53.1649 17.978 53.0629 17.714 53.0629 17.402V6.998C53.0629 6.686 53.1649 6.428 53.3689 6.224C53.5849 6.008 53.8489 5.9 54.1609 5.9H60.0109C60.3229 5.9 60.5809 6.002 60.7849 6.206C61.0009 6.398 61.1089 6.65 61.1089 6.962C61.1089 7.226 61.0009 7.46 60.7849 7.664C60.5809 7.868 60.3229 7.97 60.0109 7.97H55.1509L55.3129 7.754V11.372L55.1869 11.138H59.2009C59.5129 11.138 59.7709 11.24 59.9749 11.444C60.1909 11.636 60.2989 11.888 60.2989 12.2C60.2989 12.464 60.1909 12.698 59.9749 12.902C59.7709 13.106 59.5129 13.208 59.2009 13.208H55.1509L55.3129 13.046V17.402C55.3129 17.714 55.1989 17.978 54.9709 18.194C54.7549 18.398 54.4969 18.5 54.1969 18.5Z" fill="#121417"/>
<path d="M69.3492 18.5C69.0132 18.5 68.7372 18.398 68.5212 18.194C68.3172 17.978 68.2152 17.714 68.2152 17.402V6.998C68.2152 6.686 68.3172 6.428 68.5212 6.224C68.7372 6.008 69.0012 5.9 69.3132 5.9H75.1632C75.4752 5.9 75.7332 6.002 75.9372 6.206C76.1532 6.398 76.2612 6.65 76.2612 6.962C76.2612 7.226 76.1532 7.46 75.9372 7.664C75.7332 7.868 75.4752 7.97 75.1632 7.97H70.3032L70.4652 7.754V11.372L70.3392 11.138H74.3532C74.6652 11.138 74.9232 11.24 75.1272 11.444C75.3432 11.636 75.4512 11.888 75.4512 12.2C75.4512 12.464 75.3432 12.698 75.1272 12.902C74.9232 13.106 74.6652 13.208 74.3532 13.208H70.3032L70.4652 13.046V17.402C70.4652 17.714 70.3512 17.978 70.1232 18.194C69.9072 18.398 69.6492 18.5 69.3492 18.5ZM79.0645 18.5C78.7525 18.5 78.4945 18.398 78.2905 18.194C78.0865 17.978 77.9845 17.714 77.9845 17.402V9.968C77.9845 9.656 78.0865 9.398 78.2905 9.194C78.4945 8.978 78.7525 8.87 79.0645 8.87C79.3765 8.87 79.6345 8.978 79.8385 9.194C80.0425 9.398 80.1445 9.656 80.1445 9.968V11.66L80.0185 10.454C80.1505 10.166 80.3185 9.914 80.5225 9.698C80.7385 9.47 80.9785 9.284 81.2425 9.14C81.5065 8.984 81.7885 8.87 82.0885 8.798C82.3885 8.726 82.6885 8.69 82.9885 8.69C83.3485 8.69 83.6485 8.792 83.8885 8.996C84.1405 9.2 84.2665 9.44 84.2665 9.716C84.2665 10.112 84.1645 10.4 83.9605 10.58C83.7565 10.748 83.5345 10.832 83.2945 10.832C83.0665 10.832 82.8565 10.79 82.6645 10.706C82.4845 10.622 82.2745 10.58 82.0345 10.58C81.8185 10.58 81.5965 10.634 81.3685 10.742C81.1525 10.838 80.9485 10.994 80.7565 11.21C80.5765 11.426 80.4265 11.696 80.3065 12.02C80.1985 12.332 80.1445 12.704 80.1445 13.136V17.402C80.1445 17.714 80.0425 17.978 79.8385 18.194C79.6345 18.398 79.3765 18.5 79.0645 18.5ZM87.8231 17.402C87.8231 17.714 87.7211 17.978 87.5171 18.194C87.3131 18.398 87.0551 18.5 86.7431 18.5C86.4311 18.5 86.1731 18.398 85.9691 18.194C85.7651 17.978 85.6631 17.714 85.6631 17.402V9.968C85.6631 9.656 85.7651 9.398 85.9691 9.194C86.1731 8.978 86.4311 8.87 86.7431 8.87C87.0551 8.87 87.3131 8.978 87.5171 9.194C87.7211 9.398 87.8231 9.656 87.8231 9.968V17.402ZM86.7251 7.7C86.3171 7.7 86.0291 7.634 85.8611 7.502C85.6931 7.37 85.6091 7.136 85.6091 6.8V6.458C85.6091 6.11 85.6991 5.876 85.8791 5.756C86.0711 5.624 86.3591 5.558 86.7431 5.558C87.1631 5.558 87.4571 5.624 87.6251 5.756C87.7931 5.888 87.8771 6.122 87.8771 6.458V6.8C87.8771 7.148 87.7871 7.388 87.6071 7.52C87.4271 7.64 87.1331 7.7 86.7251 7.7ZM94.579 18.68C93.559 18.68 92.671 18.47 91.915 18.05C91.171 17.618 90.595 17.036 90.187 16.304C89.791 15.572 89.593 14.744 89.593 13.82C89.593 12.74 89.809 11.822 90.241 11.066C90.685 10.298 91.261 9.71 91.969 9.302C92.677 8.894 93.427 8.69 94.219 8.69C94.831 8.69 95.407 8.816 95.947 9.068C96.499 9.32 96.985 9.668 97.405 10.112C97.825 10.544 98.155 11.048 98.395 11.624C98.647 12.2 98.773 12.812 98.773 13.46C98.761 13.748 98.647 13.982 98.431 14.162C98.215 14.342 97.963 14.432 97.675 14.432H90.799L90.259 12.632H96.865L96.469 12.992V12.506C96.445 12.158 96.319 11.846 96.091 11.57C95.875 11.294 95.599 11.078 95.263 10.922C94.939 10.754 94.591 10.67 94.219 10.67C93.859 10.67 93.523 10.718 93.211 10.814C92.899 10.91 92.629 11.072 92.401 11.3C92.173 11.528 91.993 11.834 91.861 12.218C91.729 12.602 91.663 13.088 91.663 13.676C91.663 14.324 91.795 14.876 92.059 15.332C92.335 15.776 92.683 16.118 93.103 16.358C93.535 16.586 93.991 16.7 94.471 16.7C94.915 16.7 95.269 16.664 95.533 16.592C95.797 16.52 96.007 16.436 96.163 16.34C96.331 16.232 96.481 16.142 96.613 16.07C96.829 15.962 97.033 15.908 97.225 15.908C97.489 15.908 97.705 15.998 97.873 16.178C98.053 16.358 98.143 16.568 98.143 16.808C98.143 17.132 97.975 17.426 97.639 17.69C97.327 17.954 96.889 18.188 96.325 18.392C95.761 18.584 95.179 18.68 94.579 18.68ZM105.808 8.69C106.696 8.69 107.368 8.876 107.824 9.248C108.292 9.62 108.61 10.118 108.778 10.742C108.958 11.354 109.048 12.038 109.048 12.794V17.402C109.048 17.714 108.946 17.978 108.742 18.194C108.538 18.398 108.28 18.5 107.968 18.5C107.656 18.5 107.398 18.398 107.194 18.194C106.99 17.978 106.888 17.714 106.888 17.402V12.794C106.888 12.398 106.834 12.044 106.726 11.732C106.63 11.408 106.45 11.15 106.186 10.958C105.922 10.766 105.544 10.67 105.052 10.67C104.572 10.67 104.164 10.766 103.828 10.958C103.504 11.15 103.252 11.408 103.072 11.732C102.904 12.044 102.82 12.398 102.82 12.794V17.402C102.82 17.714 102.718 17.978 102.514 18.194C102.31 18.398 102.052 18.5 101.74 18.5C101.428 18.5 101.17 18.398 100.966 18.194C100.762 17.978 100.66 17.714 100.66 17.402V9.968C100.66 9.656 100.762 9.398 100.966 9.194C101.17 8.978 101.428 8.87 101.74 8.87C102.052 8.87 102.31 8.978 102.514 9.194C102.718 9.398 102.82 9.656 102.82 9.968V10.742L102.55 10.688C102.658 10.484 102.814 10.268 103.018 10.04C103.222 9.8 103.462 9.578 103.738 9.374C104.014 9.17 104.326 9.008 104.674 8.888C105.022 8.756 105.4 8.69 105.808 8.69ZM119.267 5.18C119.579 5.18 119.837 5.282 120.041 5.486C120.245 5.69 120.347 5.954 120.347 6.278V17.402C120.347 17.714 120.245 17.978 120.041 18.194C119.837 18.398 119.579 18.5 119.267 18.5C118.955 18.5 118.697 18.398 118.493 18.194C118.289 17.978 118.187 17.714 118.187 17.402V16.52L118.583 16.682C118.583 16.838 118.499 17.03 118.331 17.258C118.163 17.474 117.935 17.69 117.647 17.906C117.359 18.122 117.017 18.308 116.621 18.464C116.237 18.608 115.817 18.68 115.361 18.68C114.533 18.68 113.783 18.47 113.111 18.05C112.439 17.618 111.905 17.03 111.509 16.286C111.125 15.53 110.933 14.666 110.933 13.694C110.933 12.71 111.125 11.846 111.509 11.102C111.905 10.346 112.433 9.758 113.093 9.338C113.753 8.906 114.485 8.69 115.289 8.69C115.805 8.69 116.279 8.768 116.711 8.924C117.143 9.08 117.515 9.278 117.827 9.518C118.151 9.758 118.397 10.004 118.565 10.256C118.745 10.496 118.835 10.7 118.835 10.868L118.187 11.102V6.278C118.187 5.966 118.289 5.708 118.493 5.504C118.697 5.288 118.955 5.18 119.267 5.18ZM115.631 16.7C116.159 16.7 116.621 16.568 117.017 16.304C117.413 16.04 117.719 15.68 117.935 15.224C118.163 14.768 118.277 14.258 118.277 13.694C118.277 13.118 118.163 12.602 117.935 12.146C117.719 11.69 117.413 11.33 117.017 11.066C116.621 10.802 116.159 10.67 115.631 10.67C115.115 10.67 114.659 10.802 114.263 11.066C113.867 11.33 113.555 11.69 113.327 12.146C113.111 12.602 113.003 13.118 113.003 13.694C113.003 14.258 113.111 14.768 113.327 15.224C113.555 15.68 113.867 16.04 114.263 16.304C114.659 16.568 115.115 16.7 115.631 16.7Z" fill="#2869DA"/>
<defs>
<linearGradient id="paint0_linear_142_341" x1="12" y1="0.75" x2="12" y2="23.25" gradientUnits="userSpaceOnUse">
<stop stop-color="#D6E7FF"/>
<stop offset="0.1" stop-color="#AAEFE6"/>
<stop offset="0.4" stop-color="#F6F17F"/>
<stop offset="0.6" stop-color="#E6BAF1"/>
<stop offset="0.8" stop-color="#FEBCAF"/>
<stop offset="1" stop-color="#C2F496"/>
</linearGradient>
<clipPath id="clip0_142_341">
<path d="M3 1.01477H10.3183C10.6422 1.01477 10.9047 1.27734 10.9047 1.60125V4.77772C10.9047 5.10162 10.6422 5.36419 10.3183 5.36419H3V1.01477Z" fill="white"/>
</clipPath>
</defs>
</svg>
