<svg width="120" height="23" viewBox="0 0 120 23" fill="none" xmlns="http://www.w3.org/2000/svg">
<g clip-path="url(#clip0_146_268)">
<path fill-rule="evenodd" clip-rule="evenodd" d="M14.6667 7.25757C14.6667 8.1703 13.2795 8.96523 11.23 9.3788C13.2795 9.79233 14.6667 10.5873 14.6667 11.5C14.6667 12.4127 13.2795 13.2077 11.23 13.6212C13.2795 14.0348 14.6667 14.8297 14.6667 15.7424C14.6667 17.0813 11.6819 18.1667 8 18.1667C4.3181 18.1667 1.33333 17.0813 1.33333 15.7424C1.33333 14.8297 2.72048 14.0348 4.77 13.6212C2.72048 13.2077 1.33333 12.4127 1.33333 11.5C1.33333 10.5873 2.72048 9.79233 4.77 9.3788C2.72048 8.96523 1.33333 8.1703 1.33333 7.25757C1.33333 5.9187 4.3181 4.83333 8 4.83333C11.6819 4.83333 14.6667 5.9187 14.6667 7.25757Z" fill="#2869DA"/>
</g>
<path d="M25.1378 18V4.90909H30.3026C31.2955 4.90909 32.1413 5.09872 32.8402 5.47798C33.5391 5.85298 34.0717 6.375 34.4382 7.04403C34.8089 7.70881 34.9943 8.47585 34.9943 9.34517C34.9943 10.2145 34.8068 10.9815 34.4318 11.6463C34.0568 12.3111 33.5135 12.8288 32.8018 13.1996C32.0945 13.5703 31.2379 13.7557 30.2322 13.7557H26.9403V11.5376H29.7848C30.3175 11.5376 30.7564 11.446 31.1016 11.2628C31.451 11.0753 31.7109 10.8175 31.8814 10.4893C32.0561 10.157 32.1435 9.77557 32.1435 9.34517C32.1435 8.91051 32.0561 8.53125 31.8814 8.20739C31.7109 7.87926 31.451 7.62571 31.1016 7.44673C30.7521 7.26349 30.3089 7.17188 29.772 7.17188H27.9055V18H25.1378ZM41.4327 18H36.7921V4.90909H41.4711C42.7878 4.90909 43.9213 5.17116 44.8716 5.69531C45.8219 6.2152 46.5527 6.96307 47.0641 7.93892C47.5797 8.91477 47.8375 10.0824 47.8375 11.4418C47.8375 12.8054 47.5797 13.9773 47.0641 14.9574C46.5527 15.9375 45.8176 16.6896 44.8588 17.2138C43.9043 17.7379 42.7623 18 41.4327 18ZM39.5598 15.6286H41.3176C42.1358 15.6286 42.824 15.4837 43.3823 15.1939C43.9448 14.8999 44.3667 14.446 44.6479 13.8324C44.9334 13.2145 45.0762 12.4176 45.0762 11.4418C45.0762 10.4744 44.9334 9.68395 44.6479 9.07031C44.3667 8.45668 43.9469 8.00497 43.3887 7.7152C42.8304 7.42543 42.1422 7.28054 41.324 7.28054H39.5598V15.6286ZM49.8878 18V4.90909H58.5554V7.19105H52.6555V10.3104H57.9801V12.5923H52.6555V18H49.8878ZM64.5831 18V4.90909H69.8246C70.7876 4.90909 71.5909 5.05185 72.2344 5.33736C72.8778 5.62287 73.3615 6.01918 73.6854 6.52628C74.0092 7.02912 74.1712 7.60866 74.1712 8.26491C74.1712 8.77628 74.0689 9.22585 73.8643 9.61364C73.6598 9.99716 73.3786 10.3125 73.0206 10.5597C72.6669 10.8026 72.2621 10.9751 71.8061 11.0774V11.2053C72.3047 11.2266 72.7713 11.3672 73.206 11.6271C73.6449 11.8871 74.0007 12.2514 74.2734 12.7202C74.5462 13.1847 74.6825 13.7386 74.6825 14.3821C74.6825 15.0767 74.5099 15.6967 74.1648 16.2422C73.8239 16.7834 73.3189 17.2116 72.6499 17.527C71.9808 17.8423 71.1563 18 70.1761 18H64.5831ZM67.3509 15.7372H69.6072C70.3786 15.7372 70.9411 15.5902 71.2947 15.2962C71.6484 14.9979 71.8253 14.6016 71.8253 14.1072C71.8253 13.745 71.7379 13.4254 71.5632 13.1484C71.3885 12.8714 71.1392 12.6541 70.8153 12.4964C70.4957 12.3388 70.1143 12.2599 69.6712 12.2599H67.3509V15.7372ZM67.3509 10.3871H69.4027C69.782 10.3871 70.1186 10.321 70.4126 10.1889C70.7109 10.0526 70.9453 9.8608 71.1158 9.61364C71.2905 9.36648 71.3778 9.07031 71.3778 8.72514C71.3778 8.25213 71.2095 7.87074 70.8729 7.58097C70.5405 7.29119 70.0675 7.14631 69.4538 7.14631H67.3509V10.3871ZM82.7285 13.8196V8.18182H85.4515V18H82.8372V16.2166H82.7349C82.5133 16.7919 82.1447 17.2543 81.6291 17.6037C81.1177 17.9531 80.4934 18.1278 79.7562 18.1278C79.1 18.1278 78.5225 17.9787 78.024 17.6804C77.5254 17.3821 77.1355 16.9581 76.8542 16.4084C76.5772 15.8587 76.4366 15.2003 76.4324 14.4332V8.18182H79.1554V13.9474C79.1596 14.527 79.3152 14.9851 79.622 15.3217C79.9288 15.6584 80.34 15.8267 80.8556 15.8267C81.1838 15.8267 81.4906 15.7521 81.7761 15.603C82.0616 15.4496 82.2917 15.2237 82.4664 14.9254C82.6454 14.6271 82.7328 14.2585 82.7285 13.8196ZM91.2475 18.1598C90.5018 18.1598 89.8263 17.968 89.2212 17.5845C88.6204 17.1967 88.1431 16.6278 87.7894 15.8778C87.44 15.1236 87.2653 14.1989 87.2653 13.1037C87.2653 11.9787 87.4464 11.0433 87.8086 10.2976C88.1708 9.54759 88.6523 8.98722 89.2532 8.61648C89.8583 8.24148 90.521 8.05398 91.2411 8.05398C91.7908 8.05398 92.2489 8.14773 92.6154 8.33523C92.9862 8.51847 93.2844 8.74858 93.5103 9.02557C93.7404 9.2983 93.9151 9.56676 94.0344 9.83097H94.1175V4.90909H96.8342V18H94.1495V16.4276H94.0344C93.9066 16.7003 93.7255 16.9709 93.4911 17.2393C93.261 17.5036 92.9606 17.723 92.5898 17.8977C92.2234 18.0724 91.7759 18.1598 91.2475 18.1598ZM92.1104 15.9929C92.5494 15.9929 92.9201 15.8736 93.2227 15.6349C93.5295 15.392 93.7638 15.0533 93.9258 14.6186C94.092 14.1839 94.1751 13.6747 94.1751 13.0909C94.1751 12.5071 94.0941 12 93.9322 11.5696C93.7702 11.1392 93.5359 10.8068 93.229 10.5724C92.9222 10.3381 92.5494 10.2209 92.1104 10.2209C91.663 10.2209 91.2859 10.3423 90.979 10.5852C90.6722 10.8281 90.44 11.1648 90.2823 11.5952C90.1246 12.0256 90.0458 12.5241 90.0458 13.0909C90.0458 13.6619 90.1246 14.1669 90.2823 14.6058C90.4442 15.0405 90.6765 15.3814 90.979 15.6286C91.2859 15.8714 91.663 15.9929 92.1104 15.9929ZM102.691 18.1598C101.945 18.1598 101.27 17.968 100.665 17.5845C100.064 17.1967 99.5865 16.6278 99.2328 15.8778C98.8833 15.1236 98.7086 14.1989 98.7086 13.1037C98.7086 11.9787 98.8897 11.0433 99.252 10.2976C99.6142 9.54759 100.096 8.98722 100.697 8.61648C101.302 8.24148 101.964 8.05398 102.684 8.05398C103.234 8.05398 103.692 8.14773 104.059 8.33523C104.43 8.51847 104.728 8.74858 104.954 9.02557C105.184 9.2983 105.358 9.56676 105.478 9.83097H105.561V4.90909H108.278V18H105.593V16.4276H105.478C105.35 16.7003 105.169 16.9709 104.934 17.2393C104.704 17.5036 104.404 17.723 104.033 17.8977C103.667 18.0724 103.219 18.1598 102.691 18.1598ZM103.554 15.9929C103.993 15.9929 104.363 15.8736 104.666 15.6349C104.973 15.392 105.207 15.0533 105.369 14.6186C105.535 14.1839 105.618 13.6747 105.618 13.0909C105.618 12.5071 105.537 12 105.376 11.5696C105.214 11.1392 104.979 10.8068 104.672 10.5724C104.366 10.3381 103.993 10.2209 103.554 10.2209C103.106 10.2209 102.729 10.3423 102.422 10.5852C102.116 10.8281 101.883 11.1648 101.726 11.5952C101.568 12.0256 101.489 12.5241 101.489 13.0909C101.489 13.6619 101.568 14.1669 101.726 14.6058C101.888 15.0405 102.12 15.3814 102.422 15.6286C102.729 15.8714 103.106 15.9929 103.554 15.9929ZM112.197 21.6818C111.852 21.6818 111.528 21.6541 111.226 21.5987C110.928 21.5476 110.68 21.4815 110.484 21.4006L111.098 19.3679C111.418 19.4659 111.705 19.5192 111.961 19.5277C112.221 19.5362 112.445 19.4766 112.632 19.3487C112.824 19.2209 112.979 19.0036 113.099 18.6967L113.259 18.2812L109.737 8.18182H112.6L114.633 15.392H114.735L116.787 8.18182H119.67L115.854 19.0611C115.67 19.5895 115.421 20.0497 115.106 20.4418C114.795 20.8381 114.401 21.1428 113.923 21.3558C113.446 21.5732 112.871 21.6818 112.197 21.6818Z" fill="#121417"/>
<defs>
<clipPath id="clip0_146_268">
<rect width="16" height="16" fill="white" transform="translate(0 3.5)"/>
</clipPath>
</defs>
</svg>
