<svg width="40" height="40" viewBox="0 0 40 40" fill="none" xmlns="http://www.w3.org/2000/svg">
<path d="M11.0129 36.6667C10.171 36.6667 9.45833 36.375 8.875 35.7917C8.29167 35.2083 8 34.4957 8 33.6538V8.01292C8 7.17097 8.29167 6.45833 8.875 5.875C9.45833 5.29167 10.171 5 11.0129 5H24.25L33 13.75V33.6538C33 34.4957 32.7083 35.2083 32.125 35.7917C31.5417 36.375 30.829 36.6667 29.9871 36.6667H11.0129ZM23 15V7.5H17.0065H11.0129C10.8846 7.5 10.7671 7.55347 10.6604 7.66042C10.5535 7.76708 10.5 7.88458 10.5 8.01292V33.6538C10.5 33.7821 10.5535 33.8996 10.6604 34.0063C10.7671 34.1132 10.8846 34.1667 11.0129 34.1667H29.9871C30.1154 34.1667 30.2329 34.1132 30.3396 34.0063C30.4465 33.8996 30.5 33.7821 30.5 33.6538V15H23Z" fill="#6B4139"/>
<path d="M17 31H24.2948C24.3462 31 24.3932 30.9786 24.4358 30.9358C24.4786 30.8932 24.5 30.8462 24.5 30.7948V29.05H17V31ZM13.8333 24.95H16V23H14.0385C13.9872 23 13.9402 23.0214 13.8975 23.0642C13.8547 23.1068 13.8333 23.1538 13.8333 23.2052V24.95ZM13.8333 28.0667H16V25.95H13.8333V28.0667ZM14.0385 31H16V29.05H13.8333V30.7948C13.8333 30.8462 13.8547 30.8932 13.8975 30.9358C13.9402 30.9786 13.9872 31 14.0385 31ZM17 28.0667H24.5V25.95H17V28.0667ZM17 24.95H24.5V23.2052C24.5 23.1538 24.4786 23.1068 24.4358 23.0642C24.3932 23.0214 24.3462 23 24.2948 23H17V24.95ZM14.0385 32C13.7017 32 13.4167 31.8833 13.1833 31.65C12.95 31.4167 12.8333 31.1316 12.8333 30.7948V23.2052C12.8333 22.8684 12.95 22.5833 13.1833 22.35C13.4167 22.1167 13.7017 22 14.0385 22H24.2948C24.6316 22 24.9167 22.1167 25.15 22.35C25.3833 22.5833 25.5 22.8684 25.5 23.2052V30.7948C25.5 31.1316 25.3833 31.4167 25.15 31.65C24.9167 31.8833 24.6316 32 24.2948 32H14.0385Z" fill="#6B4139"/>
</svg>
