<svg width="40" height="40" viewBox="0 0 40 40" fill="none" xmlns="http://www.w3.org/2000/svg">
<path d="M13.6538 21.0896H26.3463V18.5896H13.6538V21.0896ZM13.6538 25.8975H26.3463V23.3975H13.6538V25.8975ZM13.6538 30.705H21.3463V28.205H13.6538V30.705ZM10.5129 35.8334C9.67097 35.8334 8.95833 35.5417 8.375 34.9584C7.79167 34.375 7.5 33.6624 7.5 32.8204V7.1796C7.5 6.33766 7.79167 5.62502 8.375 5.04169C8.95833 4.45835 9.67097 4.16669 10.5129 4.16669H23.75L32.5 12.9167V32.8204C32.5 33.6624 32.2083 34.375 31.625 34.9584C31.0417 35.5417 30.329 35.8334 29.4871 35.8334H10.5129ZM22.5 14.1667V6.66669H10.5129C10.3846 6.66669 10.2671 6.72016 10.1604 6.8271C10.0535 6.93377 10 7.05127 10 7.1796V32.8204C10 32.9488 10.0535 33.0663 10.1604 33.1729C10.2671 33.2799 10.3846 33.3334 10.5129 33.3334H29.4871C29.6154 33.3334 29.7329 33.2799 29.8396 33.1729C29.9465 33.0663 30 32.9488 30 32.8204V14.1667H22.5Z" fill="#542C5F"/>
</svg>
