<svg width="40" height="40" viewBox="0 0 40 40" fill="none" xmlns="http://www.w3.org/2000/svg">
<path d="M11.0129 36.6667C10.171 36.6667 9.45833 36.375 8.875 35.7917C8.29167 35.2083 8 34.4957 8 33.6538V8.01292C8 7.17097 8.29167 6.45833 8.875 5.875C9.45833 5.29167 10.171 5 11.0129 5H24.25L33 13.75V33.6538C33 34.4957 32.7083 35.2083 32.125 35.7917C31.5417 36.375 30.829 36.6667 29.9871 36.6667H11.0129ZM23 15V7.5H17.0065H11.0129C10.8846 7.5 10.7671 7.55347 10.6604 7.66042C10.5535 7.76708 10.5 7.88458 10.5 8.01292V33.6538C10.5 33.7821 10.5535 33.8996 10.6604 34.0063C10.7671 34.1132 10.8846 34.1667 11.0129 34.1667H29.9871C30.1154 34.1667 30.2329 34.1132 30.3396 34.0063C30.4465 33.8996 30.5 33.7821 30.5 33.6538V15H23Z" fill="#45642A"/>
<path d="M20.3125 31V27.3102H22.5V31H20.3125ZM16.7188 31V21.625H18.9062V31H16.7188ZM13.125 31V24.69H15.3125V31H13.125Z" fill="#45642A"/>
</svg>
