<svg width="40" height="40" viewBox="0 0 40 40" fill="none" xmlns="http://www.w3.org/2000/svg">
<path fill-rule="evenodd" clip-rule="evenodd" d="M7.01292 33.6667C6.17097 33.6667 5.45833 33.375 4.875 32.7917C4.29167 32.2083 4 31.4957 4 30.6538V5.01292C4 4.17097 4.29167 3.45833 4.875 2.875C5.45833 2.29167 6.17097 2 7.01292 2H20.25L29 10.75V23.7308H26.5V12H19V4.5H7.01292C6.88458 4.5 6.76708 4.55347 6.66042 4.66042C6.55347 4.76708 6.5 4.88458 6.5 5.01292V12V30.6538C6.5 30.7821 6.55347 30.8996 6.66042 31.0063C6.76708 31.1132 6.88458 31.1667 7.01292 31.1667H21V33.6667H7.01292Z" fill="#225053"/>
<path fill-rule="evenodd" clip-rule="evenodd" d="M22.8463 18.9229H10.1538V16.4229H22.8463V18.9229Z" fill="#225053"/>
<path fill-rule="evenodd" clip-rule="evenodd" d="M22.8463 23.7308H10.1538V21.2308H22.8463V23.7308Z" fill="#225053"/>
<path fill-rule="evenodd" clip-rule="evenodd" d="M17.8463 28.5383H10.1538V26.0383H17.8463V28.5383Z" fill="#225053"/>
<path fill-rule="evenodd" clip-rule="evenodd" d="M20.525 35.475C20.875 35.825 21.3026 36 21.8077 36H33.1923C33.6974 36 34.125 35.825 34.475 35.475C34.825 35.125 35 34.6974 35 34.1923V22.25L29.75 17H21.8077C21.3026 17 20.875 17.175 20.525 17.525C20.175 17.875 20 18.3026 20 18.8077V34.1923C20 34.6974 20.175 35.125 20.525 35.475ZM33.5 23H29V18.5L33.5 23ZM21.8077 33.8845H22.6923V31.8845H23.8077C24.0589 31.8845 24.2692 31.7999 24.4385 31.6307C24.6077 31.4614 24.6923 31.2512 24.6923 31V29.8845C24.6923 29.6333 24.6077 29.4231 24.4385 29.2537C24.2692 29.0846 24.0589 29 23.8077 29H21.8077V33.8845ZM22.6923 29.8845V31H23.8077V29.8845H23.25H22.6923ZM27.673 33.8845H25.7115V29H27.673C27.9243 29 28.1346 29.0846 28.3038 29.2537C28.4731 29.4231 28.5578 29.6333 28.5578 29.8845V33C28.5578 33.2512 28.4731 33.4614 28.3038 33.6307C28.1346 33.7999 27.9243 33.8845 27.673 33.8845ZM26.596 33V29.8845H27.673V33H26.596ZM30.5577 33.8845H29.673V29H31.75V29.8845H30.5577V31H31.75V31.8845H30.5577V33.8845Z" fill="#225053"/>
</svg>
